<?xml version="1.0" encoding="utf-8"?>
<!-- Generator: Adobe Illustrator 16.0.0, SVG Export Plug-In . SVG Version: 6.00 Build 0)  -->
<!DOCTYPE svg PUBLIC "-//W3C//DTD SVG 1.1//EN" "http://www.w3.org/Graphics/SVG/1.1/DTD/svg11.dtd">
<svg version="1.1" id="Layer_1" xmlns="http://www.w3.org/2000/svg" xmlns:xlink="http://www.w3.org/1999/xlink" x="0px" y="0px"
	 width="500px" height="500px" viewBox="0 0 500 500" enable-background="new 0 0 500 500" xml:space="preserve">
<g id="XMLID_4_">
	<path id="XMLID_231_" fill="#EE7D4D" d="M291.267,392.874c5.968-7.284,13.295-14.757,22.918-15.781
		c12.666-1.35,27.148,8.729,35.562,16.947c11.106,10.849,13.412,29.148,11.21,43.563c-0.705,4.612-2.378,9.708-5.288,13.52
		c-1.312,1.715-6.332,7.242-8.72,6.955c7.44,0.896,20.486-1.342,24.827,6.539c6.274,11.393-7.818,15.189-16.21,14.401
		c-17.225-1.62-34.71-3.872-50.717-10.555c-18.707-7.813-24.215-39.486-15.365-55.595L291.267,392.874z"/>
	<path id="XMLID_128_" fill="#F39B56" d="M158.347,461.076c-17.855-16.092-30.918-41.457-34.847-64.224
		c-4.196-24.319-13.152-51.299-37.744-64.072c-13.962-7.251-32.56-14.689-33.616-31.933c-1.25-20.417,20.616-21.749,36.519-18.482
		c37.171,7.641,62.673,36.838,68.139,72.497c1.851,12.075,2.225,24.342,4.064,36.431c3.389,22.286,10.458,51.408,36.332,58.706
		c5.482,1.546,12.381,2.872,13.969,8.119c1.193,3.941-1.718,8.179-5.553,10.026c-3.835,1.849-8.326,1.863-12.618,1.694
		C179.456,469.307,169.222,470.878,158.347,461.076z"/>
	<path id="XMLID_106_" fill="#EE7D4D" d="M292.028,300.323c1.028,2.946,29.804,45.161,86.33,39.271c0,0,28.776,20.616,36.999,0
		c0,0,14.388-46.142-32.888-34.361c0,0-51.388-2.945-79.138-47.125L292.028,300.323z"/>
	<path id="XMLID_230_" fill="#F39B56" d="M212.892,222.765c-12.021,18.225-19.529,39.692-25.478,60.296
		c-7.033,24.363-11.319,49.426-13.457,74.601c-1.361,16.025-1.839,32.115-1.545,48.188c0.295,16.118-1.616,37.793,4.965,52.699
		c5.971,13.522,15.328,18.065,29.297,20.499c13.407,2.335,26.924,4.154,40.503,5.273c28.803,2.375,61.331,3.011,88.015-9.245
		c0,0,1.027-183.588-35.972-238.567L212.892,222.765z"/>
	<path id="XMLID_105_" fill="#EE7D4D" d="M228.249,277.19c-4.377,0.983,6.623,7.57,7.338,8.238
		c5.432,5.088,10.521,10.51,15.261,16.19c9.223,11.056,17.229,23.142,23.286,36.054c5.647,12.043,17.35,47.815-1.684,54.571
		c-13.827,4.909-15.786-14.94-18.504-23.129c-6.826-20.568-18.718-43.816-35.61-58.655c-1.108-0.973-2.9-1.921-3.952-0.89
		c2.563,8.328,10.855,16.378,15.555,23.936c4.977,8.002,9.535,16.243,13.634,24.687c5.3,10.918,9.399,39.249,23.332,40.395
		c7.837,0.645,17.602-3.859,18.958-11.871c3.731-22.044-2.196-44.282-13.6-63.502c-5.669-9.554-12.62-18.398-20.396-26.477
		c-3.7-3.843-17.587-20.356-23.247-19.611C228.486,277.145,228.362,277.165,228.249,277.19z"/>
	<path id="XMLID_94_" fill="#73481D" d="M262.429,309.091c-4.445-5.613-9.077-10.619-13.526-14.998
		c-2.885,11.726-10.958,19.394-20.904,26.319c-1.233,0.859-2.867,1.924-4.573,3.132c3.808,5.577,7.346,11.314,10.727,17.136
		c0.524-0.168,1.041-0.336,1.46-0.491C249.72,334.993,255.819,321.041,262.429,309.091z"/>
	<path id="XMLID_85_" fill="#73481D" d="M251.751,381.393c11.991-1.941,23.312-7.745,34.088-13.484
		c0.339-0.18,0.675-0.373,1.013-0.555c-0.541-8.498-2.356-16.558-5.045-24.132c-7.405,6.039-15.177,11.731-23.803,16.054
		c-3.415,1.713-8.065,2.75-12.345,4.134C247.49,368.635,249.362,375.273,251.751,381.393z"/>
	<path id="XMLID_84_" fill="#712B15" d="M357.487,339.601c6.229-11.356,10.656-23.604,13.071-36.217
		c-5.826-1.264-13.325-3.378-21.461-6.868c-4.245,13.427-5.376,23.976-16.017,35.572c-0.308,0.337-0.622,0.681-0.936,1.028
		C339.565,336.22,348.009,338.587,357.487,339.601z"/>
	<path id="XMLID_83_" fill="#73481D" d="M190.069,274.395c-2.551,7.993-5.042,16.884-7.319,26.709
		c8.519,3.291,18.352,3.507,26.912,0.274c2.047-0.773,4.18-1.885,5.014-3.831c0.545-1.274,0.44-2.715,0.17-4.067
		C212.715,282.806,201.233,276.297,190.069,274.395z"/>
	<path id="XMLID_241_" fill="#73481D" d="M202.404,351.057c1.968-0.647,3.916-1.486,5.436-2.845
		c2.846-2.545,3.768-6.637,3.083-10.302c-0.686-3.665-2.774-6.961-5.199-9.876c-5.6-6.732-15.435-13.351-25.509-15.129
		c-2.184,11.044-4.036,23.119-5.407,36.157C183.306,353.065,193.425,354.017,202.404,351.057z"/>
	<path id="XMLID_82_" fill="#E52A29" d="M299.222,236.509l-52.665-8.385c-9.885,0.078-19.771,0.155-29.656,0.233
		c-2.224,0.018-4.871,0.146-7.654,0.451c-3.208,5.707-8.176,15.453-13.445,29.176c7.293,4.844,17.079,8.451,22.445,10.768
		c30.201,13.039,65.164,11.886,97.313,7.517C311.167,260.125,305.798,246.28,299.222,236.509z"/>
	<path id="XMLID_81_" fill="#EAE334" d="M265.805,282.195c-1.477,25.925,43.069,36.668,43.214,6.838
		c0.027-5.806-1.412-11.614-4.164-16.791C294.505,252.771,266.968,261.775,265.805,282.195z"/>
	<path id="XMLID_80_" fill="#AF7823" d="M283.487,276.373c-0.405,2.095,1.459,4.319,3.686,4.401c0.44,0.016,0.944-0.016,1.247,0.288
		c0.249,0.252,0.259,0.638,0.251,0.984c-0.048,2.489-0.096,4.979-0.144,7.469c-0.035,1.79-0.026,3.721,1.068,5.175
		c2.38,3.164,5.09,0.602,5.196-2.123c0.117-3.012-1.429-7.744-2.687-10.528c-0.133-0.297-0.273-0.647-0.105-0.93
		c0.236-0.399,0.84-0.326,1.319-0.33c1.775-0.018,3.039-1.99,2.648-3.644C294.883,272.532,284.535,270.965,283.487,276.373z"/>
	<path id="XMLID_78_" fill="#F39B56" d="M399.801,87.786c2.007-12.367,3.99-24.736,4.475-37.263
		c0.339-8.761,0.678-18.671-4.068-26.53c-4.965-8.221-13.543-11.898-22.444-7.537c-6.448,3.159-10.802,9.884-10.881,16.806
		c-16.618-0.287-32.756,1.076-49.211,0.072c-17.592-1.073-36.424-0.024-54.127,0.123c-34.667,0.289-69.3,2.226-103.972,2.087
		c-0.462-0.001-0.952-0.011-1.342-0.248c-0.457-0.278-0.668-0.799-0.866-1.281c-1.73-4.208-4.632-7.97-8.327-10.796
		c-12.565-9.612-24.07,2.789-26.739,14.109c-9.689,41.117-9.445,82.149,1.067,123.243c4.988,19.496,12.606,41.283,28.02,55.82
		c18.067,17.039,36.56,25.422,61.171,30.287c25.672,5.075,49.242,3.959,74.511-1.056c17.976-3.567,35.3-10.418,50.426-20.397
		C386.225,193.076,391.341,139.917,399.801,87.786z"/>
	<path id="XMLID_237_" fill="#221E20" d="M252.967,143.617c4.251-0.146,8.62-1.596,11.384-4.684
		c6.805-7.603,2.562-20.848-7.922-22.831c-8.92-1.688-18.063,3.783-18.591,12.613C237.334,137.121,244.123,143.922,252.967,143.617z
		"/>
	<path id="XMLID_77_" fill="#73481D" d="M197.853,35.037c0.275,7.084,2.401,14.295,5.708,19.108
		c1.135,1.651,2.447,3.202,4.012,4.493c2.806,2.314,6.409,3.732,10.108,3.976c2.503,0.165,5.126-0.23,7.194-1.585
		c4.51-2.956,4.869-9.072,4.774-14.295c-0.066-3.606,0.623-8.097,1.011-12.62C219.725,34.416,208.789,34.758,197.853,35.037z"/>
	<path id="XMLID_76_" fill="#73481D" d="M238.504,33.903c0.893,6.558,2.757,13.302,3.959,17.456
		c1.057,3.649,2.449,7.366,5.245,10.051c2.795,2.684,7.34,4.04,10.84,2.263c2.817-1.431,4.302-4.44,5.325-7.328
		c2.098-5.923,3.584-14.758,2.948-22.933c-1.094,0.016-2.193,0.036-3.277,0.045C255.195,33.526,246.85,33.694,238.504,33.903z"/>
	<path id="XMLID_75_" fill="#73481D" d="M283.872,33.069c0.332,7.11,3.257,15.182,5.282,19.763c1.604,3.627,3.74,7.203,7.103,9.482
		c3.361,2.279,8.188,2.949,11.589,0.727c3.149-2.055,4.336-5.906,5.014-9.49c1.068-5.656,1.237-13.612-0.659-20.472
		C302.914,32.731,293.363,32.862,283.872,33.069z"/>
	<path id="XMLID_248_" fill="#221E20" d="M281.146,203.517c-0.254-0.698-1.221-1.113-2.174-0.926
		c-4.231,0.831-8.161,0.167-11.68-1.99c-10.521-6.45-9.795-17.407-10.213-26.5c-0.302-6.521-0.603-13.043-0.904-19.564
		c-0.447-9.707-0.896-19.413-1.343-29.119c-0.033-0.726-0.883-1.219-1.834-1.27c-0.979,0.025-1.746,0.634-1.711,1.356
		c0.354,7.672,0.707,15.343,1.061,23.015c0.319,6.91,0.639,13.819,0.958,20.729c0.23,5.003-0.352,10.409,0.302,15.352
		c-1.016,8.457-10.635,13.549-20.757,14.939c-0.964,0.131-1.6,0.816-1.42,1.529c0.18,0.716,1.108,1.183,2.068,1.052
		c10.508-1.441,18.216-5.753,21.692-11.628c1.878,4.687,5.227,9.302,9.835,12.131c3.178,1.953,6.745,2.945,10.493,2.945
		c1.435,0,2.896-0.146,4.375-0.441C280.84,204.938,281.401,204.217,281.146,203.517z"/>
	<path id="XMLID_72_" fill="#C65F3D" d="M229.819,132.243c0.21-3.096-3.324-4.313-5.779-2.391c-2.417,1.893-0.709,4.958,1.885,5.286
		C227.752,135.369,229.699,134.001,229.819,132.243z"/>
	<path id="XMLID_71_" fill="#C65F3D" d="M216.512,154.557c0.21-3.096-3.324-4.313-5.779-2.391c-2.417,1.892-0.709,4.958,1.885,5.286
		C214.446,157.683,216.393,156.316,216.512,154.557z"/>
	<path id="XMLID_30_" fill="#C65F3D" d="M229.819,175.46c0.21-3.096-3.324-4.313-5.779-2.392c-2.417,1.893-0.709,4.958,1.885,5.287
		C227.752,178.586,229.699,177.218,229.819,175.46z"/>
	<path id="XMLID_29_" fill="#C65F3D" d="M277.589,131.677c-0.209-3.096,3.324-4.313,5.779-2.391
		c2.417,1.893,0.709,4.958-1.885,5.287C279.656,134.804,277.709,133.437,277.589,131.677z"/>
	<path id="XMLID_28_" fill="#C65F3D" d="M290.896,153.992c-0.21-3.096,3.323-4.313,5.78-2.391c2.416,1.893,0.709,4.958-1.886,5.286
		C292.962,157.119,291.016,155.751,290.896,153.992z"/>
	<path id="XMLID_27_" fill="#C65F3D" d="M277.589,174.895c-0.209-3.096,3.324-4.313,5.779-2.391
		c2.417,1.893,0.709,4.958-1.885,5.287C279.656,178.021,277.709,176.653,277.589,174.895z"/>
	<path id="XMLID_26_" fill="#EF804E" d="M172.29,138.222c-2.354,8.659-21.84,8.369-28.822,6.484
		c-11.125-3.002-13.069-14.423-2.131-19.203c9.46-4.134,28.076-4.205,30.937,8.596C172.628,135.688,172.608,137.051,172.29,138.222z
		"/>
	<path id="XMLID_25_" fill="#EF804E" d="M336.558,137.657c2.353,8.659,21.84,8.368,28.822,6.484
		c11.125-3.001,13.068-14.422,2.13-19.203c-9.459-4.133-28.075-4.205-30.936,8.596C336.219,135.123,336.239,136.486,336.558,137.657
		z"/>
	<path fill="#221E20" d="M282.637,132.676c-0.769,0-1.475-0.479-1.704-1.218c-0.274-0.897,0.264-1.841,1.203-2.102l3.985-1.102
		c3.562-0.977,7.245-1.99,10.798-3.128c6.888-2.217,14.031-3.492,20.938-4.727c1.644-0.292,3.288-0.586,4.932-0.894
		c11.128-2.069,19.768-3.271,28.009-3.887c0.95-0.056,1.831,0.625,1.907,1.556c0.077,0.933-0.652,1.748-1.63,1.821
		c-8.103,0.609-16.616,1.794-27.606,3.839c-1.653,0.308-3.309,0.602-4.96,0.897c-6.787,1.211-13.804,2.462-20.46,4.604
		c-3.627,1.165-7.35,2.188-10.947,3.174l-3.965,1.096C282.969,132.653,282.801,132.676,282.637,132.676z"/>
	<path fill="#221E20" d="M358.016,157.89c-0.084,0-0.173-0.006-0.26-0.017c-7.284-1.026-14.731-1.228-21.934-1.42
		c-3.09-0.086-6.184-0.168-9.284-0.314c-2.575-0.119-5.151-0.271-7.728-0.424c-8.063-0.473-16.4-0.966-24.549-0.447
		c-0.974,0.086-1.823-0.642-1.891-1.579c-0.065-0.933,0.675-1.741,1.651-1.804c8.38-0.54,16.836-0.036,25.007,0.447
		c2.563,0.148,5.122,0.3,7.682,0.423c3.075,0.142,6.146,0.225,9.213,0.308c7.305,0.195,14.856,0.401,22.348,1.453
		c0.972,0.139,1.64,1,1.497,1.926C359.639,157.284,358.882,157.89,358.016,157.89z"/>
	<path fill="#221E20" d="M321.303,195.254c-0.26,0-0.521-0.053-0.77-0.169c-13.623-6.276-27.342-12.73-40.771-19.188
		c-0.875-0.42-1.229-1.44-0.788-2.274c0.44-0.84,1.51-1.185,2.383-0.751c13.413,6.445,27.112,12.893,40.718,19.163
		c0.883,0.407,1.253,1.419,0.827,2.26C322.597,194.9,321.963,195.254,321.303,195.254z"/>
	<path fill="#221E20" d="M225.763,133.404c-0.206,0-0.415-0.033-0.619-0.105l-14.224-5.051c-7.492-2.658-15.453-4.24-23.154-5.77
		c-6.309-1.251-12.833-2.545-19.146-4.433c-0.936-0.281-1.455-1.231-1.163-2.125c0.293-0.894,1.275-1.4,2.223-1.112
		c6.146,1.84,12.582,3.118,18.807,4.353c7.83,1.553,15.926,3.162,23.669,5.909l14.225,5.051c0.918,0.328,1.386,1.301,1.044,2.178
		C227.159,132.984,226.481,133.404,225.763,133.404z"/>
	<path fill="#221E20" d="M151.755,159.654c-0.799,0-1.524-0.52-1.722-1.294c-0.231-0.91,0.353-1.828,1.306-2.049
		c9.759-2.261,18.024-4.055,28.059-4.84c10.984-0.864,22.073-0.625,32.948,0.706c0.972,0.119,1.66,0.97,1.535,1.896
		c-0.123,0.926-0.996,1.608-1.986,1.466c-10.633-1.305-21.47-1.533-32.207-0.692c-9.779,0.768-17.906,2.533-27.515,4.76
		C152.035,159.638,151.894,159.654,151.755,159.654z"/>
	<path fill="#221E20" d="M178.021,189.18c-0.712,0-1.384-0.41-1.654-1.085c-0.354-0.874,0.103-1.854,1.015-2.191
		c10.032-3.694,20.582-6.041,30.785-8.309c5.508-1.225,11.203-2.492,16.704-3.949c0.944-0.251,1.921,0.274,2.185,1.178
		c0.261,0.904-0.291,1.837-1.236,2.085c-5.574,1.476-11.305,2.75-16.849,3.985c-10.083,2.241-20.512,4.562-30.31,8.173
		C178.449,189.144,178.234,189.18,178.021,189.18z"/>
	<path id="XMLID_24_" fill="#F39B56" d="M151.202,140.877c-0.269-1.63-3.952-13.188-6.353-10.854
		c-1.988,1.931-0.086,6.064,0.794,8.013c0.883,1.954,2.371,4.009,4.589,4.201c0.212,0.018,0.438,0.015,0.623-0.085
		C151.283,141.921,151.277,141.34,151.202,140.877z"/>
	<path id="XMLID_23_" fill="#F39B56" d="M159.198,138.9c-0.181-1.631-2.665-13.188-4.284-10.855
		c-1.34,1.931-0.058,6.064,0.537,8.013c0.595,1.954,1.598,4.009,3.094,4.201c0.143,0.018,0.295,0.016,0.42-0.084
		C159.253,139.944,159.249,139.363,159.198,138.9z"/>
	<path id="XMLID_12_" fill="#F39B56" d="M354.557,139.276c0.436-3.157-2.756-11.345-6.719-11.045
		C346.132,128.36,353.686,145.606,354.557,139.276z"/>
	<path id="XMLID_9_" fill="#F39B56" d="M363.73,139.923c0.146-3.256-3.579-9.005-5.127-12c-0.316-0.61-0.832-1.324-1.533-1.2
		c-0.758,0.133-0.925,1.1-0.829,1.831c0.261,1.984,0.871,4.075,1.573,5.954c0.931,2.495,2.169,5.244,4.75,6.211
		c0.232,0.087,0.498,0.157,0.727,0.063C363.613,140.647,363.716,140.259,363.73,139.923z"/>
	<path id="XMLID_229_" fill="#F39B56" d="M204.594,389.268c15.961-2.062,31.087,11.778,34.311,25.666
		c3.604,15.527,2.858,32.27-5.402,46.477c1.419-2.44,16.795,0.746,19.047,1.626c5.13,2.002,10.735,6.455,13.783,10.84
		c3.377,4.856,4.666,12.132-2.245,14.475c-22.164,7.515-52.651,2.794-72.869-7.924c-12.889-6.835-17.377-11.324-20.347-25.379
		c-4.19-19.838-3.147-43.592,4.927-62.477L204.594,389.268z"/>
	<path id="XMLID_5_" fill="#EE7D4D" d="M266.333,473.876c-3.048-4.385-8.653-8.838-13.783-10.84
		c-2.252-0.88-17.628-4.066-19.047-1.627c8.26-14.206,9.005-30.948,5.401-46.476c-0.19-0.82-0.43-1.64-0.701-2.458
		c-0.09-0.271-0.202-0.539-0.301-0.811c-0.198-0.543-0.401-1.086-0.634-1.625c-0.139-0.324-0.296-0.645-0.448-0.965
		c-0.225-0.477-0.454-0.952-0.703-1.421c-0.184-0.346-0.377-0.686-0.573-1.026c-0.251-0.438-0.511-0.87-0.783-1.299
		c-0.223-0.35-0.45-0.698-0.685-1.043c-0.274-0.401-0.562-0.798-0.854-1.191c-5.151-6.846-10.531-12.708-18.479-16.604
		c-0.85-0.416-1.738-0.843-2.692-0.859c-0.956-0.016-1.994,0.513-2.201,1.402c-0.214,0.916,0.498,1.801,1.3,2.344
		c2.613,1.768,4.926,3.984,7.069,6.304c8.543,9.248,12.413,20.171,14.015,32.407c0.816,7.129,0.808,14.572-1.378,21.491
		c-1.21,3.831-7.937,11.41-4.322,14.533c2.82,2.437,8.558,1.362,12.017,1.921c5.26,0.848,10.504,1.186,15.27,3.825
		c3.853,2.135,10.294,9.015,7.551,13.717c-1.142,1.96-3.753,2.573-6.081,2.86c-8.397,1.03-17.493,1.2-25.813-0.32
		c-8.243-1.506-16.179-2.706-24.029-5.757c-15.177-5.895-28.851-16.912-31.173-33.211c-1.428-10.016-2.55-20.7-1.001-30.941
		c0.791-5.229,2.636-9.962,4.392-14.924c1.698-4.795,5.121-6.962,8.617-10.735c0.432-0.467,0.881-0.968,0.981-1.582
		c-5.891,0.052-12.569,7.531-14.468,12.551c-1.826,4.828-2.672,9.963-3.348,15.036c-1.7,12.763-1.239,25.881,1.425,38.495
		c2.969,14.055,7.458,18.544,20.346,25.379c14.858,7.877,35.256,12.491,53.828,11.415c0.527-0.034,1.059-0.053,1.583-0.095
		c0.913-0.07,1.814-0.171,2.716-0.269c0.612-0.066,1.226-0.12,1.836-0.2c0.917-0.121,1.816-0.278,2.72-0.431
		c0.559-0.094,1.121-0.169,1.679-0.276c1.089-0.209,2.154-0.463,3.218-0.721c0.362-0.088,0.729-0.154,1.09-0.247
		c1.428-0.373,2.83-0.788,4.2-1.253C270.999,486.008,269.71,478.732,266.333,473.876z"/>
	<path fill="#221E20" d="M347.519,92.279c0.367-0.914,0.735-1.826,1.104-2.74c0.962-2.389-2.794-4.397-4.505-2.504
		c-3.651,4.04-3.662,9.585-0.18,13.714c0.918,1.088,2.862,0.896,3.811,0c4.03-3.801,4.814-9.898,1.746-14.473
		c-1.076-1.603-3.608-1.727-4.654,0c-1.525,2.519-3.659,7.555-0.45,9.714c3.234,2.176,6.528-1.946,4.149-4.679
		c-2.22-2.55-6.015,1.109-3.812,3.641c0.069,0.08,0.141,0.161,0.21,0.242c-0.23-0.835-0.461-1.67-0.692-2.505
		c0.088-0.181,0.177-0.362,0.265-0.543c0.635-0.251,1.271-0.503,1.906-0.754c-0.131,0-0.263,0.001-0.394,0.002
		c0.635,0.251,1.271,0.502,1.906,0.754c0.534,0.511,0.37-0.546,0.563-1.172c0.232-0.753,0.591-1.423,1.003-2.102
		c-1.552,0-3.104,0-4.654,0c1.793,2.673,1.481,5.984-0.902,8.234c1.27,0,2.541,0,3.811,0c-1.543-1.831-1.403-4.68,0.181-6.433
		c-1.502-0.835-3.003-1.67-4.505-2.505c-0.367,0.914-0.735,1.826-1.104,2.739C341.073,94.004,346.282,95.344,347.519,92.279
		L347.519,92.279z"/>
	<path fill="#221E20" d="M171.476,88.483c-0.535,3.118-0.073,6.051,1.728,8.745c0.924,1.383,2.972,1.737,4.232,0.521
		c4.023-3.88,4.027-10.263,0.03-14.159c-0.926-0.903-2.921-1.096-3.812,0c-3.058,3.763-3.658,8.458-1.319,12.729
		c0.858,1.567,2.985,1.544,4.232,0.521c3.212-2.635,3.175-7.237,0.44-10.145c-0.592-0.63-1.776-0.96-2.622-0.662
		c-4.718,1.664-6.667,8.227-2.342,11.433c0.901,0.668,2.206,1.098,3.266,0.403c3.226-2.115,3.916-6.501,0.978-9.181
		c-2.509-2.288-6.327,1.347-3.812,3.641c0.273,0.249,0.542,0.813,0.113,1.094c1.088,0.134,2.177,0.268,3.266,0.402
		c-0.786-0.582-1.363-2.359-0.037-2.827c-0.874-0.221-1.748-0.442-2.622-0.662c0.889,0.945,0.457,2.127-0.44,2.863
		c1.411,0.174,2.822,0.347,4.232,0.521c-1.106-2.021-1.023-4.644,0.477-6.489c-1.271,0-2.541,0-3.812,0
		c1.953,1.903,1.929,4.988-0.03,6.877c1.411,0.174,2.821,0.348,4.232,0.521c-0.975-1.458-1.484-3.036-1.185-4.777
		C177.229,86.61,172.035,85.215,171.476,88.483L171.476,88.483z"/>
</g>
</svg>
