<?xml version="1.0" encoding="utf-8"?>
<!-- Generator: Adobe Illustrator 16.0.0, SVG Export Plug-In . SVG Version: 6.00 Build 0)  -->
<!DOCTYPE svg PUBLIC "-//W3C//DTD SVG 1.1//EN" "http://www.w3.org/Graphics/SVG/1.1/DTD/svg11.dtd">
<svg version="1.1" id="Layer_1" xmlns="http://www.w3.org/2000/svg" xmlns:xlink="http://www.w3.org/1999/xlink" x="0px" y="0px"
	  viewBox="0 0 500 500" enable-background="new 0 0 500 500" xml:space="preserve">
<g>
	<g>
		<g>
			<path fill="#D63E8D" d="M494.285,405.021c-1.587,4.982-3.884,9.719-6.997,14.011c-1.479,2.034-3.065,3.954-4.76,5.759
				c-9.164,9.849-21.197,16.307-34.118,20.145c-2.064,0.614-4.153,1.162-6.257,1.646c-5.299,1.217-10.868,2.355-16.554,3.293
				c-13.369,2.2-27.388,3.271-40.026,1.495c-1.223-0.17-2.443-0.366-3.66-0.602h-0.004c-3.631-0.703-7.187-1.766-10.354-3.641
				c-4.23-2.503-7.716-6.664-8.342-11.537c-0.75-5.775,2.695-11.518,7.506-14.799c6.34-4.331,14.42-3.399,21.588-2.633
				c2.62,0.281,5.313,0.524,8.054,0.705c6.656,0.446,13.576,0.547,20.342-0.016c7.384-0.611,14.588-2.005,21.06-4.584
				c4.309-1.711,8.298-3.945,11.803-6.831c5.351-4.392,9.58-10.282,12.103-18.089c0.142-0.425,0.272-0.847,0.398-1.279
				c1.529-5.224,1.454-10.751,0.141-15.987c-1.076-4.288-2.983-8.387-5.523-11.973c-2.256-3.185-4.809-5.616-7.549-7.658
				c-6.225-4.625-13.413-7.214-20.25-11.946c-15.885-11-3.049-31.243,14.35-25.374c12.787,4.314,23.993,12.022,32.497,22.073
				c4.717,5.584,8.601,11.886,11.458,18.733c0.95,2.263,1.786,4.593,2.501,6.971C497.684,376.215,498.579,391.531,494.285,405.021z"
				/>
			<path fill="#711C41" d="M123.127,403.212L41.85,473.547c0,0-16.72,3.049-16.128,12.954c0,0,1.823,12.385,27.835,6.266
				c0,0,55.108-7.894,89.848-36.27L123.127,403.212z"/>
			<path fill="#EE62A3" d="M359.412,458.331L156.364,470.15c-68.282-11.054-42.921-85.463-32.779-109.551
				c1.99-4.723,3.393-7.509,3.393-7.515c1.833-3.639,3.008-7.734,3.559-11.971c1.056-8.14-0.204-16.811-3.571-23.823
				c-0.311-0.649-0.656-1.266-1.019-1.863c0.654,0.079,1.327,0.094,2.024,0.033c0.481,0.002,0.959,0.966,1.439,1.448
				c1.923,0.484,3.849-0.471,5.771,0.016c0.48,0.482,0.958,1.445,1.439,1.447c4.328,0.493,8.66-0.938,12.985,0.516
				c3.364,0.972,7.212,0.981,11.543,0.033c4.333-1.432,9.137,0.507,12.989-0.926c2.408-1.437,6.251,0.498,8.661-1.42
				c1.446-0.958,2.888-0.472,4.332-0.949c0.482-0.48,0.966-1.441,1.447-1.438c5.658-0.582,10.764-3.373,16.004-5.978
				c-0.441,4.604,1.636,10.05,3.276,13.883c0.999,2.342,2.223,4.615,3.636,6.808c2.931,4.581,6.661,8.811,10.773,12.559
				c3.949,3.618,8.25,6.791,12.537,9.434c9.642,5.938,20.554,9.814,31.704,11.702c5.561,0.944,11.216,1.394,16.858,1.283
				c31.158-0.616,61.406-17.349,91.321,0.444c10.65,6.335,19.396,16.907,22.496,29.05c0.063,0.232,0.111,0.463,0.162,0.693
				C413.893,454.768,359.412,458.331,359.412,458.331z"/>
			<path fill="#97315C" d="M241.951,407.872c0,0,27.967,8.231,30.32-44.504c-1.93-0.203-3.855-0.447-5.766-0.771
				c-6.752-1.143-13.412-3.028-19.762-5.647C240.546,370.849,227.278,404.405,241.951,407.872z"/>
			<path fill="#97315C" d="M310.663,404.967c0,0,24.124-2.142,12.625-46.826c-10.122,1.689-20.317,4.01-30.607,5.115
				C292.015,378.144,293.235,404.92,310.663,404.967z"/>
			<path fill="#97315C" d="M381.723,369.378c-2.216-1.888-4.571-3.59-7.037-5.056c-12.853-7.646-25.768-8.909-38.791-7.823
				c-2.868,0.239,4.131,25.158,5.245,27.279c2.304,4.391,5.557,8.231,9.709,10.975C370.106,407.481,382.253,386.276,381.723,369.378
				z"/>
			<path fill="#EE62A3" d="M223.764,410.147c-4.695,0.636-8.815,2.881-13.262,4.279c-12.264,3.856-24.216,10.303-35.832,15.867
				c-12.621,6.046-25.136,12.331-37.404,19.071c-11.579,6.36-23.262,12.999-33.655,21.205c-4.209,3.321-7.822,6.901-9.896,11.979
				c-2.856,6.995,8.292,7.865,12.916,7.411c6.446-0.63,13.288-2.125,19.362-4.42c0,0,112.046-5.88,135.01-28.718L223.764,410.147z"
				/>
			<path fill="#EE62A3" d="M223.764,410.147c-4.695,0.636-8.815,2.881-13.262,4.279c-12.264,3.856-24.216,10.303-35.832,15.867
				c-12.621,6.046-25.136,12.331-37.404,19.071c-11.579,6.36-23.262,12.999-33.655,21.205c-4.209,3.321-7.822,6.901-9.896,11.979
				c-2.856,6.995,8.292,7.865,12.916,7.411c6.446-0.63,13.288-2.125,19.362-4.42c0,0,112.046-5.88,135.01-28.718L223.764,410.147z"
				/>
			<path fill="#97315C" d="M194.243,421.18c-4.039,1.821-11.066,5.039-19.606,9.131c-2.91,1.395-5.814,2.804-8.712,4.228
				c-0.432,0.213-0.861,0.423-1.298,0.638c-2.525,1.246-5.043,2.507-7.556,3.777c-0.775,0.392-1.554,0.788-2.335,1.187
				c-2.508,1.279-5.009,2.57-7.501,3.879c-0.435,0.229-0.869,0.457-1.304,0.687c-2.889,1.525-5.769,3.071-8.633,4.644
				c-0.184,0.101-0.368,0.203-0.552,0.304c-0.58,0.319-1.161,0.644-1.742,0.963c-10.694,5.944-20.817,12.089-28.552,17.797
				c-0.946,0.707-1.894,1.412-2.82,2.143c-0.029,0.023-0.056,0.046-0.086,0.07c-4.179,3.307-7.765,6.874-9.83,11.924
				c-2.856,6.995,8.292,7.865,12.916,7.411c6.445-0.63,13.284-2.124,19.359-4.419h0.002c0,0,1.167-0.063,3.28-0.196
				c0.014-0.001,0.028-0.001,0.043-0.003c14.944-0.947,76.745-5.493,111.589-17.702C211.868,459.38,199.032,434.15,194.243,421.18z"
				/>
			<path fill="#231F20" d="M222.267,341.459c-8.195,12.213-28.861,22.099-39.689,25.729c-22.925,7.69-41.007,4.797-58.993-6.588
				c1.99-4.723,3.393-7.509,3.393-7.515c1.833-3.639,3.008-7.734,3.559-11.971c22.625-12.192,55.504-15.675,80.958-12.214
				C214.424,333.481,218.154,337.711,222.267,341.459z"/>
		</g>
		<path fill="#97315C" d="M448.41,444.936c-2.064,0.614-4.153,1.162-6.257,1.646c-5.299,1.217-10.868,2.355-16.554,3.293
			c-2.832-9.436-4.886-21.499-4.897-31.026c7.384-0.611,14.588-2.005,21.06-4.584C444.879,422.992,446.889,434.739,448.41,444.936z"
			/>
		<path fill="#97315C" d="M494.285,405.021c-1.587,4.982-3.884,9.719-6.997,14.011c-1.479,2.034-3.065,3.954-4.76,5.759
			c-9.536-3.924-21.2-10.713-28.964-17.357c5.351-4.392,9.58-10.282,12.103-18.089C474.85,393.067,485.536,399.562,494.285,405.021z
			"/>
		<path fill="#97315C" d="M491.188,355.934c-5.999,5.398-15.679,11.678-24.982,16.145c-1.076-4.288-2.983-8.387-5.523-11.973
			c-2.256-3.185-4.809-5.616-7.549-7.658c8.38-5.647,18.639-11.03,26.597-15.247C484.447,342.784,488.331,349.086,491.188,355.934z"
			/>
		<path fill="#FCBB3D" d="M136.652,392.996c9.887,5.987,28.954,3.057,29.512-12.405c0.443-12.275-22.35-22.841-32.802-15.339
			C124.153,371.868,128.311,387.945,136.652,392.996z"/>
	</g>
	<path fill="#97315C" d="M201.788,160.195c0,0,18.766-53.118,59.883-66.65c0,0,56.349,59.955-8.083,107.502L201.788,160.195z"/>
	<path fill="#97315C" d="M119.654,149.778c0,0-5.447-60.294-71.99-49.776c0,0-0.872,55.31,14.35,75.315L119.654,149.778z"/>
	<path fill="#EE62A3" d="M96.939,349.757c56.07,12.757,129.626-12.036,172.761-32.522c12.184-5.788,31.271-7.265,39.526-19.098
		c0.004-0.006,0.009-0.01,0.013-0.016c-8.517-6.939-12.692-17.495-15.211-28.03c-3.013-12.595-3.892-25.52-4.827-38.394
		c-1.89-26.026-5.367-51.4-19.567-71.755c-4.679-6.705-10.519-12.865-17.849-18.323c-7.69-5.728-16.256-10.2-25.201-13.624
		c-17.693-6.772-36.786-9.459-55.644-10.005c-33.696-0.975-74.603,2.471-99.921,27.552c-10.128,10.033-18.062,22.167-23.843,35.161
		c-6.782,15.245-10.737,31.641-12.878,48.149c-2.541,19.603,1.859,39.9-9.925,56.98c-1.015,1.473-8.187,12.402-10.615,8.438
		c8.835,14.425,28.499,23.855,41.102,34.893C66.794,339.615,81.176,346.169,96.939,349.757z"/>
	<path fill="#F393BD" d="M176.033,242.399c-8.767-17.878-24.596-34.789-29.441-54.267c-3.926-15.777-11.521-48.594-5.231-69.381
		c-5.791,0.427-11.481,0.99-17.016,1.653c0.593,3.592,0.746,7.278,0.509,10.89c-1.952,29.819-23.552,68.057-43.978,89.144
		c-11.752,12.132-22.872,21.778-29.566,38.339c-9.668,23.912-22.241,56.037,4.505,73.833c23.196,15.435,62.68,27.188,89.576,17.015
		C186.895,333.926,192.326,275.626,176.033,242.399z"/>
	<path fill="#1D1E1D" d="M123.608,265.521c-0.765-0.252-1.578,0.155-1.83,0.911c-0.836,2.503-1.782,5.339-3.692,7.2
		c-2.933,2.863-5.868,2.48-7.811,1.659c-8.321-3.52-6.032-14.54-6.292-21.684c-0.159-4.347-0.325-8.841,0.017-13.296
		c0.019-0.238-0.036-0.457-0.122-0.664c0.588-0.068,1.172-0.167,1.741-0.324c7.405-2.048,8.637-10.447,2.539-15.308
		c-8.836-7.043-21.938,3.763-13.307,12.697c1.673,1.731,3.98,2.714,6.383,2.966c-0.052,0.132-0.105,0.264-0.117,0.412
		c-0.354,4.619-0.187,9.195-0.023,13.623c0.151,4.12,0.35,8.247,0.327,12.389c-0.017,3.12-0.134,7.784-3.062,9.731
		c-1.01,0.673-2.577,0.574-4.67-0.287c-3.38-1.397-5.496-4.759-7.721-8.68c-0.395-0.694-1.281-0.942-1.971-0.543
		c-0.695,0.394-0.939,1.276-0.543,1.971c1.923,3.389,4.557,8.032,9.131,9.922c1.52,0.629,2.899,0.944,4.133,0.948
		c1.233,0.003,2.318-0.306,3.247-0.926c1.637-1.093,2.637-2.909,3.59-4.565c1.696,1.678,3.353,3.34,5.592,4.281
		c3.834,1.621,7.828,0.802,10.958-2.253c2.411-2.352,3.523-5.681,4.416-8.353C124.773,266.592,124.365,265.774,123.608,265.521z"/>
	<path fill="#C3756E" d="M88.239,247.122c-1.528-1.389-4.271-0.039-3.753,1.755c-0.231,0.991,0.157,2.081,1.421,2.493
		C88.494,252.211,90.179,248.886,88.239,247.122z"/>
	<path fill="#C3756E" d="M93.162,258.343c-0.003-0.676-0.27-1.316-0.964-1.713c-1.037-0.592-2.363-0.086-2.669,1.085
		c-0.06,0.229-0.033,0.4-0.028,0.589c-0.123,0.396-0.106,0.818,0.091,1.248c-0.114,0.42-0.021,0.885,0.275,1.208
		c0.77,0.846,1.812,0.366,2.464-0.353c0.341-0.188,0.644-0.44,0.812-0.819C93.338,259.145,93.293,258.729,93.162,258.343z"/>
	<path fill="#C3756E" d="M94.534,243.678c-0.23-1.343-1.277-2.29-3.189-0.697c-0.952,0.792-1.117,2.462,0.067,3.264
		C93.756,247.831,94.832,245.421,94.534,243.678z"/>
	<path fill="#C3756E" d="M114.074,244.341c0.417-0.89-0.056-2.177-0.974-2.683c-1.492-0.821-3.21,0.502-3.13,2.128
		c0.089,1.802,2.181,2.54,3.581,1.626c0.153-0.1,0.266-0.268,0.314-0.452C114.033,244.788,114.136,244.576,114.074,244.341z"/>
	<path fill="#C3756E" d="M121.164,248.998c-0.3-0.604-0.923-1.073-1.671-1.164c-1.154-0.14-1.766,0.559-1.805,1.453
		c-0.203,0.422-0.209,0.909,0.146,1.381c0.134,0.179,0.326,0.284,0.517,0.381c0.478,0.58,1.281,0.672,1.954,0.336
		c0.133-0.058,0.235-0.192,0.355-0.285c0.107-0.09,0.238-0.152,0.321-0.261c0.006-0.007,0.008-0.015,0.014-0.023
		c0.025-0.031,0.062-0.037,0.085-0.072C121.508,250.13,121.471,249.49,121.164,248.998z"/>
	<path fill="#C3756E" d="M115.736,258.101c-0.493-1.876-2.934-2.026-3.485-0.042C111.182,261.91,116.579,261.313,115.736,258.101z"
		/>
	<path fill="#1D1E1D" d="M165.33,253.471c8.195,0.218,16.454,0.98,24.619,1.725c7.656,0.7,15.606,2.457,23.288,1.596
		c1.002-0.113,1.205-1.374,0.242-1.742c-7.021-2.686-15.029-2.781-22.45-3.365c-8.597-0.68-17.079-0.853-25.692-0.709
		C163.728,251.001,163.722,253.426,165.33,253.471L165.33,253.471z"/>
	<path fill="#1D1E1D" d="M173.739,275.012c6.767,1.47,13.549,2.602,20.372,3.806c3.483,0.616,6.952,1.316,10.401,2.097
		c2.907,0.658,5.999,1.554,8.98,1.012c0.891-0.162,1.193-1.451,0.544-2.037c-2.25-2.028-5.402-2.751-8.293-3.395
		c-3.456-0.768-6.941-1.399-10.43-1.992c-7.051-1.197-14.042-1.953-21.162-2.483C172.435,271.889,172.066,274.648,173.739,275.012
		L173.739,275.012z"/>
	<path fill="#1D1E1D" d="M43.542,245.46c-5.164-3.779-12.621-3.125-18.592-2.186c-6.423,1.01-13.647,2.972-18.189,7.882
		c-0.481,0.519-0.197,1.586,0.624,1.516c5.841-0.498,11.297-2.858,17.01-4.067c6.24-1.321,12.217-0.646,18.497-0.771
		C44.239,247.808,44.534,246.185,43.542,245.46L43.542,245.46z"/>
	<path fill="#1D1E1D" d="M36.048,264.966c-8.256-1.391-17.723,2.365-22.654,9.306c-0.607,0.854,0.387,2.064,1.341,1.755
		c3.515-1.138,6.835-3.239,10.151-4.868c3.457-1.699,7.384-3.214,11.155-4.001C37.107,266.937,37.162,265.153,36.048,264.966
		L36.048,264.966z"/>
	<path fill="#1D1E1D" d="M181.097,217.362c-0.15-2.033,0.312-4.509,0.474-6.622c0.128-1.668,0.706-3.442,1.517-4.899
		c1.512-2.719,4.422-4.269,7.202-4.422c3.14-0.173,6.222,1.42,8.136,4.132c1.309,1.855,2.022,3.975,2.512,6.172
		c0.663,2.978,0.058,6.457,2.057,8.945c0.709,0.883,2.203,0.745,2.94,0.007c2.591-2.591,1.692-7.37,1.077-10.609
		c-0.572-3.012-1.827-5.999-3.688-8.439c-3.121-4.093-7.815-6.596-13.016-6.447c-4.955,0.142-9.337,2.807-12.112,6.831
		c-1.566,2.272-2.278,5.01-2.42,7.732c-0.076,1.456,0.166,2.871,0.553,4.269c0.451,1.627,1.29,2.713,2.029,4.084
		C179.027,219.343,181.206,218.837,181.097,217.362L181.097,217.362z"/>
	<path fill="#1D1E1D" d="M52.886,210.688c-0.15-2.033,0.312-4.509,0.474-6.622c0.128-1.669,0.706-3.443,1.517-4.901
		c1.512-2.718,4.422-4.268,7.201-4.421c3.141-0.174,6.223,1.419,8.137,4.132c1.31,1.855,2.022,3.975,2.511,6.171
		c0.663,2.979,0.059,6.457,2.057,8.945c0.709,0.884,2.204,0.747,2.941,0.008c2.59-2.591,1.692-7.37,1.076-10.609
		c-0.573-3.012-1.827-5.999-3.688-8.44c-3.12-4.093-7.814-6.595-13.017-6.447c-4.954,0.142-9.336,2.807-12.11,6.832
		c-1.567,2.272-2.279,5.01-2.42,7.731c-0.076,1.456,0.166,2.871,0.553,4.269c0.45,1.627,1.29,2.713,2.028,4.084
		C50.817,212.668,52.995,212.162,52.886,210.688L52.886,210.688z"/>
</g>
</svg>
