<?xml version="1.0" encoding="utf-8"?>
<!-- Generator: Adobe Illustrator 16.0.0, SVG Export Plug-In . SVG Version: 6.00 Build 0)  -->
<!DOCTYPE svg PUBLIC "-//W3C//DTD SVG 1.1//EN" "http://www.w3.org/Graphics/SVG/1.1/DTD/svg11.dtd">
<svg version="1.1" id="Layer_1" xmlns="http://www.w3.org/2000/svg" xmlns:xlink="http://www.w3.org/1999/xlink" x="0px" y="0px"
	  viewBox="0 0 500 500" enable-background="new 0 0 500 500" xml:space="preserve">
<path fill="#EC95B2" d="M414.21,407.259c-22.517,53.237-78.543,56.843-78.543,56.843c-29.773,0-56.135-14.821-75.439-30.166v0.008
	c-1.094-0.871-2.164-1.741-3.212-2.604c-0.692-0.585-1.379-1.162-2.057-1.732c-0.692-0.586-1.363-1.172-2.034-1.749
	c-16.3-14.274-25.96-27.324-25.96-27.324c-3.505-3.998-6.609-8.143-9.336-12.418c-27.116-42.444-17.641-97.147-7.796-133.244
	c0.848-3.082,1.688-6.032,2.511-8.82c11.44-38.779-13.989-52.768-13.989-52.768l117.607,6.995
	c-7.904,6.293-12.727,14.667-11.81,24.088c0.193,2.096,0.678,4.252,1.479,6.44c2.627,7.187,7.226,12.996,12.856,17.756
	c6.964,5.9,15.515,10.215,23.857,13.574c2.272,0.916,4.553,1.817,6.841,2.719c3.674,1.448,7.342,2.904,10.961,4.476
	c3.089,1.341,6.086,2.788,8.99,4.329c10.037,5.354,18.935,11.94,26.492,19.705c7.804,8.012,14.182,17.271,18.935,27.725
	c3.205,7.057,5.67,14.659,7.326,22.787c0.616,3.026,1.193,6.132,1.417,9.236c0.047,0.546,0.077,1.101,0.093,1.647
	C423.662,376.168,420.072,393.4,414.21,407.259z"/>
<path id="XMLID_617_" fill="#F0B7C5" d="M352.146,27.276c0,0,25.013,28.548-22.941,78.707l-42.328-60.993
	C286.876,44.991,341.255,9.581,352.146,27.276"/>
<path id="XMLID_616_" fill="#C799A7" d="M331.744,38.633c21.031-4.766,4.007,36.564-0.828,43.284
	c-1.039,1.444-2.188,2.879-3.745,3.739c-2.272,1.256-5.095,1.094-7.568,0.304c-8.067-2.575-12.828-10.673-16.843-18.13
	C296.301,55.836,323.548,40.49,331.744,38.633z"/>
<path id="XMLID_615_" fill="#F0B7C5" d="M132.591,27.195c-9.503,1.557-11.813,9.516-10.076,23.431
	c2.229,17.854,9.692,35.462,16.716,51.842c6.9-5.83,56.208-51.984,60.855-46.847c-14.083-15.565-33.956-23.332-54.035-27.543"/>
<path id="XMLID_614_" fill="#C799A7" d="M136.212,47.571c2.552,14.447,7.846,27.275,15.419,39.936c0,0,28.144-23.727,28.153-23.735
	c0.991-0.875-13.794-11.685-15.188-12.434c-7.198-3.866-14.917-7.821-23.096-9.182c-1.707-0.284-3.758-0.45-4.868,0.876
	c-0.882,1.053-0.754,2.598-0.523,3.952C136.144,47.18,136.178,47.376,136.212,47.571z"/>
<path id="XMLID_613_" fill="#F0B7C5" d="M79.133,169.485c0,0,22.808-9.313,31.988-37.615c0,0,21.345-89.502,126.072-98.625
	c0,0,72.472-13.476,107.616,59.187c0,0,11.005,52.896,29.157,62.305c-2.938,5.375-6.586,10.422-10.248,15.314
	c-29.899,39.94-73.789,69.148-122.563,80.051c-33.772,7.548-69.222,8.66-100.069-8.769
	C113.174,225.563,91.918,198.54,79.133,169.485z"/>
<path id="XMLID_608_" fill="#CC658D" d="M158.355,184.157c-0.23,1.129-0.434,2.257-0.554,3.389
	c-0.953,9.052,6.465,18.617,15.384,19.847c7.478,1.031,15.963-3.091,18.571-10.425c1.7-4.78,1.291-10.061,0.221-15.02
	c-1.252-5.804-3.751-13.226-9.392-16.163c-4.881-2.541-11.208-4.49-16.044-0.818c-1.582,1.202-2.813,2.812-3.825,4.521
	c-1.682,2.84-2.8,6.013-3.29,9.276C159.154,180.575,158.72,182.366,158.355,184.157z"/>
<path id="XMLID_606_" fill="#DC6B97" d="M251.983,427.021c2.578,2.286,5.336,4.606,8.248,6.919
	c-2.99-23.69-3.549-82.933,62.725-95.074C322.956,338.865,246.618,339.47,251.983,427.021z"/>
<g id="XMLID_550_">
	<path id="XMLID_551_" fill="#EBDCD8" d="M207.622,160.536c-0.554-1.818-1.279-3.628-2.264-5.246
		c-0.748-1.225-1.641-2.342-2.727-3.29c-2.997-2.588-7.125-3.536-11.086-3.505c-2.418,0.016-4.83,0.378-7.156,1.056
		c-4.468,1.294-8.612,3.736-11.848,7.072c-0.062,0.054-0.115,0.107-0.169,0.169c-0.023-0.077-0.038-0.154-0.069-0.224
		c-0.956-3.235-3.929-6.016-7.033-7.087c-0.27-0.092-0.547-0.177-0.825-0.254c-5.839-1.618-13.55,0.185-17.864,4.183
		c-4.444,4.121-6.725,10.246-6.91,16.3c-0.254,8.081,4.746,16.216,13.327,16.84c1.795,0.131,3.452,0.03,4.977-0.285
		c9.613-1.926,14.104-11.878,16.747-21.184c1.649,6.948,3.751,14.736,10.908,17.879c2.196,0.963,4.507,1.355,6.779,1.263
		c7.611-0.293,14.845-5.993,16.169-13.835C209.131,167.107,208.601,163.717,207.622,160.536z"/>
</g>
<path id="XMLID_549_" fill="#19131C" d="M182.423,142.29c-0.725-0.609-1.635-1.132-2.746-1.534
	c-5.282-1.912-14.251,0.569-15.191,6.813c-0.9,5.977,6.306,9.825,11.369,9.223C183.161,155.922,187.747,146.761,182.423,142.29z"/>
<path id="XMLID_548_" fill="#AC9298" d="M195.962,157.552c0.069-1.219-1.114-1.84-1.992-1.093c-0.729,0.621-1.188,1.761-0.014,2.197
	C194.861,158.994,195.903,158.611,195.962,157.552z"/>
<path id="XMLID_547_" fill="#AC9298" d="M200.727,166.782c-0.278,0.023-0.572,0.208-0.846,0.627
	c-0.554,0.844-0.477,2.461,0.933,2.285C202.775,169.448,201.892,166.688,200.727,166.782z"/>
<path id="XMLID_546_" fill="#AC9298" d="M193.496,176.693c0.167-1.337-1.514-2.392-2.375-1.115c-0.57,0.845-0.6,1.867,0.38,2.4
	c0.167,0.091,0.354,0.155,0.544,0.152c0.16-0.002,0.316-0.053,0.461-0.12C193.025,177.768,193.425,177.263,193.496,176.693z"/>
<path id="XMLID_545_" fill="#AC9298" d="M185.771,167.224c0.008-0.38-0.111-0.787-0.375-1.118c-0.277-0.347-0.58-0.214-0.933-0.094
	c-0.35,0.118-0.675,0.333-0.874,0.645c-0.198,0.312-0.251,0.725-0.088,1.056c0.125,0.255,0.365,0.441,0.625,0.556
	C185.155,168.721,185.755,168.035,185.771,167.224z"/>
<path id="XMLID_544_" fill="#AC9298" d="M158.182,159.586c0.069-1.219-1.115-1.84-1.993-1.092c-0.729,0.621-1.187,1.761-0.014,2.197
	C157.081,161.027,158.122,160.645,158.182,159.586z"/>
<path id="XMLID_543_" fill="#AC9298" d="M162.946,168.816c-0.277,0.023-0.571,0.207-0.846,0.627
	c-0.554,0.844-0.477,2.461,0.933,2.285C164.995,171.481,164.111,168.722,162.946,168.816z"/>
<path id="XMLID_542_" fill="#AC9298" d="M155.716,178.727c0.166-1.337-1.514-2.392-2.375-1.115c-0.57,0.846-0.6,1.868,0.379,2.4
	c0.167,0.091,0.354,0.155,0.544,0.152c0.16-0.002,0.316-0.053,0.46-0.12C155.244,179.801,155.645,179.296,155.716,178.727z"/>
<path id="XMLID_541_" fill="#AC9298" d="M147.991,169.258c0.008-0.38-0.112-0.787-0.376-1.118c-0.277-0.347-0.579-0.214-0.933-0.095
	c-0.349,0.118-0.675,0.334-0.873,0.645c-0.198,0.312-0.251,0.725-0.088,1.056c0.125,0.255,0.365,0.441,0.626,0.556
	C147.374,170.754,147.974,170.069,147.991,169.258z"/>
<path id="XMLID_540_" fill="#EC90B0" d="M139.807,141.101c3.736,4.392,1.35,10.621-2.791,13.829
	c-4.598,3.561-11.758,1.952-16.657-0.073c-9.933-4.104-10.822-15.883-0.151-20.182C126.568,132.112,135.643,136.207,139.807,141.101
	z"/>
<g id="XMLID_535_">
	<path id="XMLID_538_" fill="#EC90B0" d="M267.474,140.823c4.482,2.772,7.194,8.896,4.734,13.559
		c-3.541,6.718-17.065,9.124-23.798,7.758c-4.33-0.878-8.368-3.721-10.063-7.8C231.308,137.399,257.876,134.889,267.474,140.823z"/>
	<path id="XMLID_537_" fill="#F0B7C5" d="M253.095,155.895c0.416,0.458,1.037,0.938,1.593,0.664
		c0.632-0.313,0.513-1.237,0.294-1.908c-1.173-3.628-2.584-7.283-4.742-10.479c-0.174-0.259-0.379-0.532-0.68-0.614
		c-0.211-0.057-0.438-0.009-0.635,0.081c-0.747,0.34-1.11,1.234-1.073,2.054c0.058,1.285,0.708,3.265,1.309,4.422
		C250.258,152.227,251.489,154.121,253.095,155.895z"/>
	<path id="XMLID_536_" fill="#F0B7C5" d="M259.911,153.609c0.363,0.4,0.904,0.819,1.389,0.579c0.551-0.272,0.447-1.079,0.258-1.664
		c-1.023-3.165-2.254-6.352-4.136-9.138c-0.153-0.226-0.331-0.464-0.595-0.536c-0.183-0.05-0.381-0.008-0.553,0.07
		c-0.65,0.296-0.969,1.077-0.936,1.791c0.051,1.12,0.618,2.847,1.142,3.856C257.437,150.411,258.511,152.063,259.911,153.609z"/>
</g>
<path id="XMLID_534_" fill="#F0B7C5" d="M125.393,148.695c1.51-0.137,0.772-3.481,0.618-4.313c-0.167-0.906-1.169-4.837-2.588-2.338
	c-0.355,0.625-0.077,2.259-0.017,2.953C123.5,146.099,123.728,148.845,125.393,148.695z"/>
<path id="XMLID_533_" fill="#F0B7C5" d="M132.428,147.31c1.51-0.137,0.772-3.481,0.619-4.313c-0.169-0.906-1.17-4.838-2.589-2.338
	c-0.354,0.625-0.076,2.259-0.017,2.953C130.536,144.713,130.764,147.46,132.428,147.31z"/>
<path fill="#19131C" d="M261.353,121.78c1.271-1.465,1.976-3.097,2.485-4.957c0.208-0.758,0.383-1.525,0.591-2.284
	c0.081-0.286,0.17-0.569,0.27-0.849c-0.319,0.953,0.563-0.567-0.265,0.387c-2.609-1.081-5.22-2.162-7.829-3.243
	c0,3.081,0,6.163,0,9.244c0,3.854,5.09,6.269,7.829,3.243c1.89-2.088,3.2-5.211,3.114-8.057c-0.073-2.483-1.476-4.188-3.748-5.074
	c-2.121-0.827-4.395,0.646-5.852,2.023c-4.307,4.069,2.189,10.543,6.485,6.485c0.104-0.099,0.208-0.197,0.313-0.296
	c-0.847,0.794-1.933,1.02-3.257,0.681c-0.676-0.393-1.35-0.786-2.024-1.179c-0.317-0.542-0.635-1.083-0.953-1.625
	c-0.085-0.871-0.133-1.045-0.142-0.524c0.073-1.412-0.049-0.067-0.16,0.316c-0.07,0.222-0.146,0.442-0.229,0.659
	c0.245-0.557,0.262-0.608,0.049-0.155c-0.188,0.391-1.008,1.283-0.082,0.261c2.609,1.081,5.219,2.162,7.828,3.243
	c0-3.082,0-6.163,0-9.244c0-3.793-5.132-6.351-7.828-3.243c-1.271,1.465-1.976,3.097-2.486,4.957
	c-0.207,0.759-0.383,1.526-0.592,2.285c-0.079,0.286-0.17,0.568-0.268,0.849c0.319-0.954-0.563,0.567,0.265-0.387
	c-1.638,1.886-1.86,4.625,0,6.485C256.54,123.453,259.712,123.669,261.353,121.78L261.353,121.78z"/>
<path fill="#19131C" d="M140.141,103.897c-0.323,0.609-0.669,1.183-1.067,1.744c0.298-0.385,0.294-0.386-0.011-0.002
	c-0.391,0.484-0.768,0.979-1.14,1.477c-1.115,1.489-1.434,3.454-1.49,5.26c-0.108,3.555,3.954,5.609,6.901,3.959
	c2.083-1.166,3.487-2.997,4.096-5.299c0.262-0.994,0.316-2.055,0.428-3.076c0.143-1.316-0.187,0.953,0.083-0.397
	c0.014-0.072,0.466-1.335,0.119-0.576c1.038-2.274,0.671-4.918-1.646-6.274c-1.991-1.167-5.236-0.629-6.274,1.645
	c-0.862,1.888-1.216,3.545-1.455,5.602c-0.028,0.257-0.056,0.513-0.085,0.77c0.131-1.153-0.047-0.009-0.105,0.209
	c0.271-0.55,0.284-0.599,0.04-0.148c0.16-0.285,1.048-0.866,0.169-0.375c2.301,1.32,4.601,2.64,6.901,3.96
	c0.046-1.527-0.245,0.634,0.072-0.524c-0.35,1.278,0.668-0.732-0.129,0.273c0.92-1.16,1.818-2.286,2.513-3.597
	c1.169-2.209,0.577-4.973-1.646-6.274C144.327,101.029,141.308,101.69,140.141,103.897L140.141,103.897z"/>
<path fill="#DC6B97" d="M243.823,281.685c-2.317,42.606-10.933,84.916-8.809,127.718c0.123,2.472,3.975,2.483,3.852,0
	c-2.125-42.802,6.491-85.111,8.808-127.718C247.809,279.202,243.957,279.215,243.823,281.685L243.823,281.685z"/>
<path id="XMLID_618_" fill="#F0B7C5" d="M305.005,491.331c34.949,2.943,71.39-4.944,93.106-34.616
	c11.981-16.37,17.688-37.217,15.712-57.406c0.575,5.873-6.902,19.269-10.377,24.376c-5.147,7.563-14.641,13.358-22.72,17.237
	c-8.909,4.276-19.208,7.478-29.163,7.923c-59.758,0-122.059-56.579-122.059-56.579c-26.559-11.888-53.98-6.292-74.868,13.479
	c-10.328,9.776-18.032,20.442-23.602,33.489c-2.221,5.203-10.888,31.102,1.705,30.834c12.464-0.309,22.3-15.235,34.656-18.199
	c15.304-3.672,32.201-2.828,46.741,3.376c17.9,7.637,33.787,19.243,51.691,26.873"/>
<path fill="#CC658D" d="M349.187,264.854c-10.03,9.876-20.545,16.739-29.442,13.989c-9.345-2.889-9.391-12.541-7.372-19.767
	c1.225-4.406,3.366-7.812,6.116-10.516c6.964,5.9,15.515,10.215,23.857,13.574C344.618,263.052,346.898,263.953,349.187,264.854z"/>
<path fill="#CC658D" d="M395.63,293.364c-12.803,15.292-27.955,29.42-40.088,25.668c-20.737-6.433-3.983-28.31,13.596-45.373
	C379.175,279.013,388.072,285.6,395.63,293.364z"/>
<path fill="#CC658D" d="M423.308,353.112c-16.462,7.726-33.486,12.833-42.283,5.276c-17.179-14.783,9.813-28.719,33.54-37.3
	c3.205,7.057,5.67,14.659,7.326,22.787C422.507,346.902,423.084,350.008,423.308,353.112z"/>
<path fill="#CC658D" d="M307.09,150.691c20.345-4.651,41.013-7.619,61.626-10.785c5.831-0.896,3.346-9.733-2.438-8.844
	c-20.614,3.166-41.281,6.134-61.627,10.785C298.886,143.165,301.332,152.007,307.09,150.691L307.09,150.691z"/>
<path fill="#CC658D" d="M304.329,170.884c21.671-1.393,43.555,3.942,63.489,12.162c5.469,2.255,7.827-6.623,2.438-8.844
	c-20.614-8.5-43.526-13.929-65.928-12.489C298.458,162.089,298.421,171.264,304.329,170.884L304.329,170.884z"/>
<path fill="#CC658D" d="M67.837,152.396c15.984,1.682,31.637,6.257,46.542,12.161c5.504,2.181,7.87-6.692,2.438-8.844l0,0
	c-15.735-6.232-32.124-10.715-48.98-12.489"/>
<path fill="#CC658D" d="M72.462,194.26c13.044-7.078,27.682-9.023,42.043-11.863c5.799-1.147,3.338-9.986-2.438-8.844l0,0
	c-15.219,3.01-30.416,5.289-44.235,12.788"/>
</svg>
