<?xml version="1.0" encoding="utf-8"?>
<!-- Generator: Adobe Illustrator 16.0.0, SVG Export Plug-In . SVG Version: 6.00 Build 0)  -->
<!DOCTYPE svg PUBLIC "-//W3C//DTD SVG 1.1//EN" "http://www.w3.org/Graphics/SVG/1.1/DTD/svg11.dtd">
<svg version="1.1" id="Layer_1" xmlns="http://www.w3.org/2000/svg" xmlns:xlink="http://www.w3.org/1999/xlink" x="0px" y="0px"
	  viewBox="0 0 500 500" enable-background="new 0 0 500 500" xml:space="preserve">
<g>
	<path fill="#EE772A" d="M343.492,252.818c10.964,8.388,26.927,6.692,39.264,0.496c12.336-6.196,22.316-16.133,33.469-24.271
		c10.142-7.402,23.864-13.421,34.837-7.32c9.184,5.105,12.345,18.607,6.382,27.258c-8.05,11.676-25.375,10.786-38.087,17.072
		c-13.191,6.524-21.094,20.802-34.026,27.824c-14.371,7.802-31.915,5.223-48.027,2.43c-5.197-0.9-11.903-3.848-10.823-9.011
		L343.492,252.818z"/>
	<path fill="#EE772A" d="M386.04,429.697c7.667-1.34,15.334-2.682,23.001-4.021c7.072-1.238,15.134-2.242,20.732,2.252
		c6.564,5.27,6.128,16.023,1.197,22.848c-4.931,6.822-12.996,10.561-20.845,13.603c-23.192,8.984-47.763,14.406-72.582,16.016
		L386.04,429.697z"/>
	<path fill="#EE772A" d="M283.822,114.829c-10.227-13.59-24.434-24.004-40.235-30.199c-10.824-4.244-38.366-12.712-48.944-4.354
		c-9.764,7.716-3.417,35.73-0.52,45.667c4.916,16.862,14.63,32.403,28.153,43.685c2.936,2.449,6.087,4.739,9.689,6.022
		L283.822,114.829z"/>
	<path fill="#EE772A" d="M414.358,95.462c3.443-28.321-7.34-57.911-27.814-77.705c-11.807-11.414-18.363-10.896-29.356,1.047
		c-9.61,10.443-16.237,23.653-18.627,37.658c-3.275,19.191,1.454,39.621,12.829,55.421L414.358,95.462z"/>
	<path fill="#F49E5A" d="M249.881,177.195c-8.266,11.839-16.533,23.678-24.799,35.518c-29.054,41.612-58.825,84.881-68.259,134.747
		c-9.435,49.867,7.232,108.451,52.008,132.344c19.943,10.641,43.117,13.404,65.713,14.049c26.632,0.76,54.101-1.362,78.064-13.004
		c23.963-11.641,43.877-34.408,45.968-60.967c2.307-29.308-16.309-55.489-30.6-81.18c-24.624-44.262-38.189-94.62-39.127-145.26
		L249.881,177.195z"/>
	<path fill="#E74041" d="M254.138,261.952c19.36,11.562,42.691,15.326,65.178,13.645c13.452-1.007,28.493-5.116,34.709-17.088
		c6.753-13.004-0.229-29.075-9.792-40.177c-23.429-27.199-64.926-38.97-99.234-28.054
		C201.92,203.984,225.55,244.877,254.138,261.952z"/>
	<path fill="#F49E5A" d="M422.519,209.369c-9.073,12.169-21.11,21.396-33.696,28.967c-39.063,23.505-87.479,31.909-126.911,12.631
		c-39.435-19.278-65.321-70.257-51.619-116.061c7.401-24.754,20.286-43.87,36.376-57.918c24.584-21.496,56.648-31.169,88.056-31.093
		C416.804,46.096,494.439,112.863,422.519,209.369z"/>
	<path fill="#EE772A" d="M200.811,464.457c-10.452,7.586-48.714-13.41-58.25-18.285c-16.436-8.411-32.926-17.938-44.355-32.44
		c-11.799-14.98-16.99-33.834-18-53.089c-0.362-6.725-0.2-13.494,0.362-20.172c0.131-1.603,0.293-3.204,0.47-4.791
		c1.202-10.605,3.266-21.064,5.615-31.478c1.972-8.749,4.144-17.459,6.177-26.201c1.749-7.502,3.389-15.027,4.706-22.614
		c0.177-1.024,0.339-2.086,0.463-3.164c0.562-5.099,0.177-10.475-3.635-13.618c-1.911-1.579-4.306-2.21-6.801-2.249
		c-0.669-0.015-1.34,0.015-2.018,0.085c-1.486,0.154-2.965,0.477-4.359,0.908c-5.908,1.833-11.099,5.191-16.212,8.75
		c-3.82,2.657-7.595,5.421-11.592,7.756c-9.35,5.444-22.143,8.103-30.376,1.086c-10.267-8.742-6.362-25.394-0.062-37.309
		c7.186-13.601,16.436-26.779,27.581-36.684c7.671-6.824,16.243-12.092,25.663-14.888c11.822-3.504,24.969-3.104,39.349,3.042
		c5.946,2.542,10.89,6,14.98,10.159c6.631,6.708,11.052,15.227,13.948,24.577c5.615,18.169,5.468,39.496,4.483,56.863
		c-0.093,1.694-0.208,3.39-0.332,5.076c-0.678,9.296-1.733,18.569-2.834,27.835c-1.694,14.318-3.489,28.613-4.129,42.961
		c-0.231,5.36-0.308,10.722-0.161,16.098c0.146,5.253,0.546,10.466,1.224,15.596c3.767,28.628,16.12,54.776,40.966,71.651
		C189.543,443.894,213.08,455.544,200.811,464.457z"/>
	<path fill="#E74041" d="M391.627,176.232c5.423,9.105,5.782,21.019,0.919,30.435c-7.002-0.203-13.03-7.193-12.2-14.15
		c0.897-7.535,1.733-14.942,1.876-22.53C388.344,172.793,385.504,173.427,391.627,176.232z"/>
	<path fill="#1D1D1B" d="M374.952,159.018c3.784,7.647,6.717,17.759,2.564,25.842c-2.917,5.678-10.365,10.294-16.652,7.194
		c-3.845-1.895-7.229,3.738-3.389,5.798c9.12,4.895,20.137,0.366,25.188-8.257c6.147-10.496,0.938-23.319-6.522-31.495
		C375.535,157.433,374.587,158.279,374.952,159.018L374.952,159.018z"/>
	<path fill="#1D1D1B" d="M376.871,159.942c2.54,7.726,8.5,17.362,16.872,19.596c7.564,2.018,16.52-1.09,18.949-8.987
		c1.417-4.605-5.646-6.479-7.171-1.977c-1.783,5.258-8.516,5.781-12.997,4.105c-6.545-2.446-9.748-8.71-14.146-13.615
		C377.782,158.399,376.593,159.096,376.871,159.942L376.871,159.942z"/>
	<path fill="#EE772A" d="M350.321,80.13c-0.339,5.691-4.183,11.568-9.835,12.354c-8.388,1.17-13.803-8.118-19.024-14.788
		c-5.854-7.487-14.226-12.978-23.421-15.366c-0.409,8.549,6.538,15.366,12.075,21.889c5.546,6.524,10.113,16.32,5.007,23.191
		c-5.322,7.155-17.044,4.906-23.738-0.986c-6.684-5.891-10.767-14.325-17.552-20.102c-7.494-6.362-17.183-8.703-27.165-9.335
		c24.584-21.496,56.648-31.169,88.056-31.093c4.367,5.476,7.994,11.707,11.067,17.93C348.311,68.947,350.659,74.431,350.321,80.13z"
		/>
	<path fill="#1D1D1B" d="M389.678,113.257c-1.503-4.728,2.047-11.269,6.557-13.255c4.322-1.903,9.579,0.136,12.046,3.97
		c3.335,5.189,11.25,0.614,8.292-4.847c-4.561-8.417-15.932-11.965-24.343-7.136c-8.47,4.862-9.285,14.417-5.125,22.354
		C387.841,115.747,390.163,114.782,389.678,113.257L389.678,113.257z"/>
	<path fill="#1D1D1B" d="M309.308,148.452c-5.633-7.625-17.87-11.579-26.612-7.416c-8.012,3.816-12.251,13.282-8.245,21.436
		c2.407,4.901,9.874,0.589,7.356-4.301c-2.285-4.438,2.206-9.486,6.304-10.727c6.719-2.034,12.704,2.227,18.791,4.136
		C308.563,152.102,310.431,149.973,309.308,148.452L309.308,148.452z"/>
	<path fill="#1D1D1B" d="M375.068,146.885c-6.76,0.194-21.355,8.637-14.318,16.842c3.046,3.55,8.025,3.564,11.817,1.254
		c4.394-2.676,7.24-7.585,8.766-12.356c0.774-2.423-0.925-4.661-3.103-5.462c-7.92-2.915-16.741,3.105-17.084,11.408
		c-0.204,4.956,7.644,6.1,8.723,1.18c0.617-2.815,3.067-4.955,6.002-4.024c-1.035-1.821-2.068-3.642-3.102-5.462
		c-0.556,2.363-1.438,4.613-2.99,6.516c-0.48,0.589-3.059,3.415-3.85,2.064c-0.44-0.751,3.221-4.144,3.83-4.672
		c1.822-1.579,4.087-2.736,6.275-3.721C377.801,149.654,376.873,146.833,375.068,146.885L375.068,146.885z"/>
	<path fill="#EE772A" d="M418.473,139.527c4.004-1.429,7.609-4.14,11.253-6.31c3.96-2.359,7.947-4.669,11.964-6.928
		c8.051-4.529,16.183-8.938,24.549-12.855c6.5-3.045,0.37-13.768-5.649-9.664c-7.645,5.212-15.361,10.31-22.89,15.692
		c-3.569,2.553-7.11,5.148-10.622,7.785c-3.554,2.669-7.845,5.281-10.678,8.72C415.184,137.443,416.27,140.313,418.473,139.527
		L418.473,139.527z"/>
	<path fill="#EE772A" d="M425.352,152.138c7.056-2.028,13.794-5.896,20.556-8.75c7.041-2.972,14.242-5.489,21.486-7.914
		c6.554-2.193,2.711-11.861-3.728-8.842c-6.835,3.204-13.582,6.59-20.374,9.885c-6.642,3.222-14.127,6.22-19.999,10.738
		C421.065,148.97,422.19,153.047,425.352,152.138L425.352,152.138z"/>
	<path fill="#EE772A" d="M315.163,179.097c-3.542-0.242-7.19,1.005-10.604,1.866c-3.941,0.996-7.853,2.103-11.719,3.36
		c-7.514,2.441-14.723,5.504-22.027,8.483c-5.725,2.334-2.107,10.765,3.281,7.786c6.801-3.756,14.093-6.759,21.367-9.461
		c3.592-1.334,7.209-2.61,10.86-3.78c3.369-1.08,7.059-1.721,10.115-3.544C318.687,182.466,317.598,179.263,315.163,179.097
		L315.163,179.097z"/>
	<path fill="#EE772A" d="M320.934,190.028c-3.296-1.113-5.838,0.589-8.717,2.104c-3.376,1.777-6.614,3.808-9.89,5.765
		c-6.771,4.047-13.483,8.181-20.183,12.35c-5.128,3.194-0.327,11.409,4.738,8.105c6.831-4.455,13.63-8.946,20.379-13.525
		c3.381-2.293,6.799-4.533,10.028-7.04c2.438-1.892,4.252-3.303,4.626-6.471C321.985,190.719,321.445,190.201,320.934,190.028
		L320.934,190.028z"/>
	<path fill="#F49E5A" d="M85.544,236.441c-1.486,0.154-2.965,0.477-4.359,0.908c-5.908,1.833-11.099,5.191-16.212,8.75
		c-0.131-3.52-0.455-7.071-0.878-10.544c-0.87-7.155-3.058-15.927-5.122-23.476c-2.45-8.95-5.022-17.869-7.363-26.841
		c-0.37-1.425-0.732-2.858-1.086-4.29c7.671-6.824,16.243-12.092,25.663-14.888c0.007,0.092,0.023,0.177,0.038,0.27
		c0.793,4.822,1.787,9.604,2.834,14.372c2.049,9.281,4.306,18.47,5.623,27.889C85.991,217.949,86.553,227.052,85.544,236.441z"/>
	<path fill="#F49E5A" d="M144.464,203.838c-0.169,0.146-0.339,0.293-0.508,0.447c-6.247,5.576-12.338,11.353-18.208,17.314
		c-6,6.1-11.699,12.485-17.429,18.823c-3.474,3.844-6.739,7.987-10.32,11.8c0.562-5.099,0.177-10.475-3.635-13.618
		c-1.911-1.579-4.306-2.21-6.801-2.249c1.633-3.027,3.389-5.977,5.076-8.857c4.328-7.363,9.312-14.303,14.495-21.088
		c7.286-9.535,15.073-18.577,23.383-27.149C137.147,185.97,141.568,194.489,144.464,203.838z"/>
	<path fill="#F49E5A" d="M148.615,265.777c-0.678,9.296-1.733,18.569-2.834,27.835c-3.913,2.419-8.095,4.413-12.346,6.03
		c-9.443,3.604-20.033,5.045-30.077,5.5c-4.798,0.222-9.597-0.085-14.364-0.663c-0.771-0.093-1.556-0.185-2.341-0.277
		c1.972-8.749,4.144-17.459,6.177-26.201c0.516,0.069,1.024,0.146,1.078,0.161c0.747,0.085,1.502,0.154,2.249,0.224
		c2.396,0.216,4.798,0.354,7.201,0.454c8.257,0.331,14.826-0.131,22.112-1.895c3.381-0.823,6.716-1.748,9.99-2.95
		c0.138-0.046,0.246-0.084,0.331-0.115c0,0,0.008,0,0.016-0.008c0.007,0,0.015-0.009,0.023-0.009
		c0.832-0.376,1.656-0.77,2.465-1.185c1.424-0.748,2.818-1.556,4.159-2.442C145.134,268.466,146.643,267.51,148.615,265.777z"/>
	<path fill="#F49E5A" d="M142.715,368.267c-11.191,5.716-24.607,7.456-36.761,5.677c-8.773-1.287-16.752-5.838-23.529-11.392
		c-0.739-0.608-1.479-1.239-2.219-1.909c-0.362-6.725-0.2-13.494,0.362-20.172c3.644,2.51,7.04,5.422,11.222,7.093
		c3.019,1.202,6.192,1.949,9.357,2.611c0.308,0.054,0.608,0.108,0.91,0.161c0.053,0,0.107,0.008,0.169,0.016
		c0.747,0.07,1.502,0.123,2.256,0.193c1.533,0.146,3.05,0.315,4.591,0.378c1.779,0.062,3.55-0.017,5.329-0.123
		c0.385-0.024,0.755-0.063,0.925-0.086h0.054c0.023-0.008,0.038-0.008,0.046-0.008c0.739-0.13,1.463-0.284,2.195-0.446
		c1.548-0.339,3.073-0.755,4.583-1.248c0.754-0.246,1.501-0.507,2.249-0.785c0.516-0.193,1.386-0.563,1.509-0.601h0.008
		c2.826-1.301,5.53-2.858,8.064-4.659c0.084-0.063,0.562-0.417,0.924-0.687c0.03-0.015,0.062-0.047,0.092-0.069
		c0.016-0.016,0.039-0.03,0.054-0.038c0.354-0.3,0.886-0.739,0.978-0.816c1.356-1.163,2.711-2.325,4.021-3.534
		c0.493-0.463,1.017-0.871,1.548-1.249c-0.231,5.36-0.308,10.722-0.161,16.098C141.637,357.924,142.038,363.137,142.715,368.267z"/>
	<path fill="#E28241" d="M358.607,477.08c29.411-20.076,52.403-56.159,39.533-92.505c-5.454-15.406-16.506-29.147-31.76-35.63
		c-18.167-7.719-38.852-3.544-55.389,6.212c-20.468,12.075-34.313,32.276-46.961,51.81c-2.686,4.148,3.933,7.983,6.608,3.863
		c10.416-16.034,21.463-32.505,36.953-44.119c13.896-10.418,32.283-17.039,49.65-12.781c15.058,3.69,26.563,15.563,32.628,29.492
		c6.419,14.74,6.521,30.841,1.789,46.088c-5.785,18.649-18.473,34.846-33.315,47.23C358.156,476.896,358.403,477.22,358.607,477.08
		L358.607,477.08z"/>
	<path fill="#E28241" d="M291.309,294.202c10.762,22.982,27.614,43.104,46.498,59.874c3.259,2.895,8.071-2.069,4.748-4.749
		c-19.746-15.925-35.896-34.959-50.747-55.417C291.589,293.609,291.149,293.862,291.309,294.202L291.309,294.202z"/>
</g>
</svg>
