<?xml version="1.0" encoding="utf-8"?>
<!-- Generator: Adobe Illustrator 16.0.0, SVG Export Plug-In . SVG Version: 6.00 Build 0)  -->
<!DOCTYPE svg PUBLIC "-//W3C//DTD SVG 1.1//EN" "http://www.w3.org/Graphics/SVG/1.1/DTD/svg11.dtd">
<svg version="1.1" id="Layer_1" xmlns="http://www.w3.org/2000/svg" xmlns:xlink="http://www.w3.org/1999/xlink" x="0px" y="0px"
	 width="500px" height="500px" viewBox="0 0 500 500" preserveAspectRatio="xMidYMid meet" enable-background="new 0 0 500 500" xml:space="preserve">
<g>
	<g>
		<path fill="#795448" d="M89.456,415.645c-0.529,2.609-4.502,0.45-5.717-1.919c-7.852-15.311-15.716-30.832-19.687-47.574
			s-3.736-35.073,4.141-50.369c10.189-19.789,31.406-31.761,42.955-50.788c16.163-26.632,7.964-65.219-17.63-82.978
			c-9.487-6.583-21.301-10.468-32.684-8.521c-6.302,1.079-12.904,4.628-14.602,10.792c-1.696,6.161,2.147,12.578,6.967,16.772
			c4.82,4.195,10.712,7.074,15.276,11.548c10.769,10.561,11.827,28.072,6.832,42.304s-14.93,26.08-24.22,37.963
			c-9.291,11.883-18.367,24.679-21.109,39.512c-2.975,16.086,1.91,32.652,8.934,47.428c18.991,39.942,56.411,72.513,100.235,78.468
			L89.456,415.645z"/>
		<path fill="#795448" d="M248.419,125.629c-0.083-1.962-1.809-3.407-3.434-4.51c-22.808-15.476-55.834-13.764-76.919,3.989
			c12.293,27.302,39.407,47.364,69.11,51.138L248.419,125.629z"/>
		<path fill="#795448" d="M378.522,94.3c1.964,0.067,3.537-1.542,4.761-3.078c17.179-21.555,18.001-54.616,1.917-76.999
			c-28.165,10.165-50.248,35.662-56.283,64.989L378.522,94.3z"/>
		<path fill="#C78D74" d="M100.91,455.512c10.32,22.673,23.117,37.008,48.953,36.861c12.32-0.068,24.642-0.136,36.958-0.204
			c3.466-0.018,7.649-0.463,9.15-3.586c-1.623-4.042-4.32-7.647-7.743-10.345c10.766-3.538,16.867-14.488,23.648-23.564
			c2.055-2.755,5.298-6.346,9.077-9.355c5.468-4.345,12.06-7.471,17.819-5.05c5.805,2.437,5.701,7.814,3.988,13.52
			c-1.405,4.686-3.896,9.596-5.076,13.273c-2.104,6.556-2.541,16.285,4.192,17.717c4.806,1.026,8.776-3.616,11.367-7.788
			c6.128-9.876,11.458-20.223,16.701-30.599c39.052-77.292,73.524-156.896,103.176-238.252l-81.891-11.27
			c-1.182,11.78-7.279,22.42-13.239,32.65c-2.26,3.884-4.563,7.821-7.796,10.942c-16.387,15.83-39.263,19.03-59.993,24.843
			c-11.46,3.218-23.67,3.288-34.551,8.538c-11.23,5.422-23.418,10.568-34.076,17.205c-22.972,14.31-40.825,36.615-50.644,61.761
			C77.823,386.385,86.441,423.727,100.91,455.512z"/>
		<path fill="#EAB5A0" d="M220.955,445.318c5.468-4.345,12.06-7.471,17.819-5.05c5.805,2.437,5.701,7.814,3.988,13.52
			c21.203-24.235,39.69-50.84,55.007-79.163c12.354-22.846,22.827-47.606,23.204-73.577c0.103-6.899-0.858-14.535-6.01-19.127
			c-5.995-5.338-15.71-4.33-22.346,0.188c-6.641,4.513-10.886,11.7-14.77,18.728C252.731,346.262,233.564,394.969,220.955,445.318z"
			/>
		<path fill="#795448" d="M314.392,286.622c-22.131-1.783-42.858-12.238-60.255-26.036c-11.644-9.235-14.152-32.445-0.515-42.32
			c12.561-9.097,42.225,0.645,55.333,5.269c13.06,4.606,38.227,9.835,45.468,23.077c5.141,9.405,0.713,32.11-8.762,37.374
			C338.125,288.172,322.658,287.287,314.392,286.622z"/>
		<path fill="#C78D74" d="M448.688,213.035c17.632-23.707,27.938-55.072,18.859-83.188c-9.955-30.833-40.416-50.547-71.076-61.027
			c-23.169-7.92-47.962-12.05-72.264-9.045c-39.438,4.875-76.461,30.182-92.644,66.476c-10.757,24.127-11.305,52.28-2.396,77.056
			c5.518,15.342,10.846,32.886,23.515,43.844c36.205,31.314,92.722,30.692,134.838,13.049
			C411.539,250.138,433.108,233.981,448.688,213.035z"/>
		<path fill="#FBC456" d="M364.772,273.873c8.263,2.359,16.532,7.64,18.822,15.922c0.356,1.282,0.557,2.655,0.204,3.94
			c-0.393,1.442-1.432,2.616-2.519,3.646c-5.375,5.093-12.58,7.967-19.905,9.052c-5.942,0.88-12.247,0.598-17.616-2.097
			c-5.369-2.695-9.597-8.144-9.66-14.15C333.948,275.258,353.786,270.736,364.772,273.873z"/>
		<path fill="#F39759" d="M364.973,282.642c0.641,4.49,0.442,8.926-0.303,13.392c-0.257,1.533-2.771,0.908-2.37-0.652
			c1.054-4.093,1.271-8.299,0.961-12.509C363.189,281.908,364.834,281.665,364.973,282.642L364.973,282.642z"/>
		<path fill="#F39759" d="M373.319,292.256c-3.563,0.115-7.262-0.694-10.793-1.148c-3.533-0.454-7.063-0.914-10.591-1.41
			c-1.878-0.264-1.09-3.145,0.789-2.864c3.493,0.518,6.978,1.074,10.463,1.632c3.423,0.549,7.092,0.819,10.387,1.91
			C374.595,290.712,374.421,292.218,373.319,292.256L373.319,292.256z"/>
		<path fill="#010202" d="M314.578,138.854c-3.944,0.437-7.66,1.264-11.132,3.25c-3.359,1.924-6.228,4.637-8.38,7.854
			c-4.649,6.954-5.789,15.847-4.659,24.007c0.42,3.039-3.806,3.653-4.18,0.566c-1.14-9.394,0.49-19.45,6.368-27.096
			c4.847-6.309,13.942-11.674,22.114-9.564C315.294,138.021,315.107,138.794,314.578,138.854L314.578,138.854z"/>
		<path fill="#010202" d="M352.563,113.829c-0.686-1.841-0.13-4.215,0.345-6.056c0.538-2.094,1.383-4.147,2.356-6.074
			c1.912-3.783,4.611-7.179,7.905-9.854c7.128-5.788,16.31-8.148,25.35-6.696c2.416,0.388,1.38,4.028-1.011,3.664
			c-7.805-1.188-16.278,0.959-22.447,5.924c-2.961,2.385-5.454,5.372-7.323,8.681c-0.955,1.693-1.697,3.455-2.333,5.29
			c-0.59,1.699-0.884,3.731-1.874,5.248C353.268,114.354,352.723,114.256,352.563,113.829L352.563,113.829z"/>
		<path fill="#F29B9E" d="M392.267,147.843c4.533,4.796,9.238,9.901,10.786,16.315c1.548,6.416-1.417,14.424-7.817,16.027
			c-4.885,1.223-9.795-1.51-14.09-4.138c-2.781-1.702-5.564-3.405-8.347-5.107c-0.728-8.461-2.848-16.801-6.248-24.583
			c8.513,2.588,17.573,3.368,26.404,2.273c0.729-0.091,1.695-0.052,1.911,0.651c0.213,0.704-1.417,0.589-0.878,0.091
			L392.267,147.843z"/>
		<path fill="#010202" d="M364.242,137.367c2.607-0.333,3.964,2.723,3.444,4.922c-0.378,1.592-1.478,2.935-2.668,4.005
			c-1.178,1.062-2.563,2.285-4.154,2.644c-3.737,0.841-4.954-3.878-4.973-6.672c-0.021-3.193,1.467-6.477,4.417-7.948
			c2.753-1.376,6.331-1.202,8.579,1.062c2.692,2.711,2.201,6.771,0.688,9.934c-1.462,3.053-4.188,6.394-7.817,6.617
			c-2.999,0.185-5.311-2.119-6.159-4.82c-1.043-3.308,0.169-6.73,2.92-8.758c3.213-2.37,7.457-2.375,11.212-1.633
			c1.459,0.288,2.201,1.982,1.881,3.314c-0.637,2.646-1.584,5.379-3.893,7.028c-1.899,1.358-4.585,1.762-6.703,0.661
			c-4.912-2.548-2.259-10.868,3.291-9.308c0.882,0.249,1.72,0.996,1.921,1.922c0.516,2.383-0.432,4.784-2.591,6.021
			c-2.418,1.385-5.383,0.562-5.845-2.397c-0.352-2.271,1.094-4.626,3.382-5.144c2.382-0.54,4.938,1.05,5.419,3.459
			c0.682,3.433-4.294,4.884-5.292,1.459c0.315,1.078,2.447,0.186,1.863-0.899c-0.797-0.457-1.594-0.914-2.39-1.371
			c0.931,0.085,0.036,0.018,0.131,0.094c0.159,0.134-0.282-1.186,0.017,0.24c0.641,0.641,1.28,1.281,1.921,1.921
			c0.442,0.128,0.766-0.212,1.005-0.426c-0.44,0.394,0.201,0.308-0.116-0.007c-0.637-0.629,0.023-0.294,0.521-0.471
			c1.467-0.521,1.849-2.95,2.163-4.215c0.628,1.104,1.255,2.209,1.882,3.314c-2.76-0.564-8.709-0.517-7.909,3.535
			c0.265,1.331,0.923,1.981,2.165,1.172c1.766-1.146,3.344-3.718,3.616-5.794c0.246-1.879-0.999-3.199-2.901-2.979
			c-2.239,0.259-3.381,2.338-3.5,4.416c-0.032,0.597-0.061,2.951,0.561,3.297c0.423,0.236,2.475-1.425,2.818-1.693
			c1.718-1.333,3.277-4.257,0.931-5.89C363.794,137.782,363.922,137.408,364.242,137.367L364.242,137.367z"/>
		<path fill="#010202" d="M344.315,186.133c4.214,1.232,8.196,1.529,12.404,0.035c3.981-1.415,7.496-3.98,9.819-7.531
			c4.851-7.401,4.73-17.078,1.021-24.924c-2.256-4.771-5.586-8.644-9.236-12.396c-2.142-2.199,1.029-5.211,3.313-3.313
			c7.938,6.592,13.614,17.298,13.255,27.739c-0.339,9.888-5.932,19.921-15.911,22.773c-4.719,1.349-10.813,1.192-14.883-1.861
			C343.854,186.474,343.981,186.035,344.315,186.133L344.315,186.133z"/>
		<path fill="#010202" d="M406.956,116.763c8.213,7.436,5.554,19.748-1.911,26.574c-8.847,8.09-21.603,8.119-32.724,6.079
			c-3.005-0.551-6.251-1.328-8.452-3.609c-2.202-2.282-3.032-5.621-1.486-8.475c0.567-1.046,1.987-1.354,2.991-0.784
			c1.132,0.644,1.242,1.911,0.783,2.99c-0.738,1.739,0.933,3.498,2.293,4.253c2.041,1.135,4.563,1.475,6.836,1.885
			c4.705,0.85,9.576,1.234,14.343,0.685c8.516-0.98,17.058-6.134,19.592-14.751c1.535-5.224-0.124-9.977-2.603-14.586
			C406.503,116.806,406.773,116.599,406.956,116.763L406.956,116.763z"/>
		<path fill="#A9674D" d="M136.365,352.715c10.086-3.148,20.51,1.151,28.688,7.048c8.071,5.819,14.813,13.539,20.062,21.959
			c11.12,17.832,15.247,39.392,13.11,60.184c-1.299,12.635-4.5,25.396-9.882,36.931c-0.12-0.93-0.239-1.859-0.359-2.788
			c2.332,2.082,4.538,4.257,6.69,6.522c1.775,1.869-0.823,4.236-2.749,2.747c-2.48-1.92-4.876-3.901-7.193-6.018
			c-0.797-0.727-0.791-1.887-0.36-2.786c4.675-9.733,8.426-19.742,10.24-30.428c1.788-10.541,1.982-21.419,0.128-31.961
			c-3.286-18.688-12.521-36.503-26.83-49.106c-8.508-7.493-19.658-13.615-31.364-11.644
			C136.12,353.448,135.937,352.848,136.365,352.715L136.365,352.715z"/>
	</g>
	<path fill="#795448" d="M423.304,101.451c3.645-2.699,5.363-8.019,7.952-11.726c3.045-4.358,6.923-7.791,10.279-11.845
		c4.646-5.613-2.694-13.351-8.131-8.13c-4.132,3.968-7.248,9.649-9.66,14.795c-2.03,4.331-5.491,10.479-4.294,15.338
		C419.822,101.394,421.941,102.459,423.304,101.451L423.304,101.451z"/>
	<path fill="#795448" d="M435.152,106.891c3.552-0.723,6.606-3.248,9.77-4.925c3.513-1.864,7.142-3.398,10.904-4.688
		c6.77-2.321,2.653-12.415-3.837-9.098c-3.887,1.988-7.622,4.226-11.154,6.799c-3.094,2.254-6.897,4.675-8.471,8.284
		C431.495,105.25,432.914,107.347,435.152,106.891L435.152,106.891z"/>
	<path fill="#795448" d="M302.897,197.87c-5.38,0.852-10.932,4.594-15.397,7.558c-4.869,3.23-9.431,6.914-13.664,10.937
		c-4.752,4.515,2.868,12.021,7.147,7.148c3.595-4.091,7.482-7.911,11.748-11.304c4.15-3.304,9.249-5.694,13.092-9.308
		C308.217,200.65,305.631,197.437,302.897,197.87L302.897,197.87z"/>
	<path fill="#795448" d="M314.062,208.266c-5.285,1.912-8.795,7.461-11.884,11.918c-3.504,5.058-6.369,10.363-8.785,16.017
		c-3.159,7.397,7.212,11.873,10.226,4.311c1.99-4.991,4.38-9.887,7.035-14.558c2.425-4.268,6.596-8.773,7.444-13.653
		C318.485,210.069,316.636,207.334,314.062,208.266L314.062,208.266z"/>
</g>
</svg>
