<?xml version="1.0" encoding="utf-8"?>
<!-- Generator: Adobe Illustrator 16.0.0, SVG Export Plug-In . SVG Version: 6.00 Build 0)  -->
<!DOCTYPE svg PUBLIC "-//W3C//DTD SVG 1.1//EN" "http://www.w3.org/Graphics/SVG/1.1/DTD/svg11.dtd">
<svg version="1.1" id="Layer_1" xmlns="http://www.w3.org/2000/svg" xmlns:xlink="http://www.w3.org/1999/xlink" x="0px" y="0px"
	  viewBox="0 0 500 500" enable-background="new 0 0 500 500" xml:space="preserve">
<g>
	<g>
		<path fill="#6D9282" d="M388.86,291.941c1.515,4.39,5.592,7.527,10.001,8.987c4.408,1.46,9.154,1.472,13.796,1.271
			c12.963-0.559,27.188-3.412,35.06-13.728c2.883-3.777,4.749-8.382,8.313-11.526c3.564-3.142,9.921-3.999,12.587-0.065
			c1.054,1.556,1.293,3.515,1.346,5.394c0.375,13.479-7.577,26.246-18.408,34.28c-10.828,8.033-24.206,11.907-37.527,13.999
			c-10.316,1.619-21.135,2.22-30.972-1.284L388.86,291.941z"/>
		<path fill="#6D9282" d="M139.061,285.006c-26.278,5.946-50.883,19.123-70.396,37.702c-6.067,5.777-11.973,14.838-7.398,21.857
			c2.672,4.1,8.16,5.581,13.01,4.925c4.85-0.657,9.265-3.044,13.627-5.262c28.561-14.514,60.005-23.324,91.95-25.764
			L139.061,285.006z"/>
		<path fill="#6D9282" d="M352.991,286.422c3.273,4.381,10.779,2.826,14.038-1.564c3.259-4.393,3.473-10.264,3.527-15.731
			c0.224-22.551-0.07-45.344,4.928-67.336c4.999-21.992,15.966-43.518,34.445-56.445s45.28-15.233,63.236-1.588
			c6.82,5.184,12.015,12.248,16.169,19.74c5.698,10.279,9.147,24.273,1.175,32.908c-6.7,7.257-17.984,6.992-27.859,6.889
			c-16.503-0.175-34.663,2.411-45.663,14.715c-11.451,12.811-11.499,31.775-16.199,48.303c-3.236,11.378-8.944,22.048-16.612,31.058
			L352.991,286.422z"/>
		<path fill="#A3C2B2" d="M483.379,362.44c-18.47,19.561-44.156,15.148-67.945,15.37c-12.341,0.113-24.266,4.146-35.985,8.007
			c-11.725,3.863-23.774,7.638-36.109,7.214c-9.48-0.324-19.189-3.508-26.208-10.053c-0.13-0.122-0.261-0.246-0.385-0.377
			c-5.081-5.021-6.679-12.405-11.333-17.397c-0.116-0.126-0.232-0.247-0.354-0.369c-6.537-6.622-14.605-5.354-23.347-6.261
			c-11.042-1.143-21.541-4.825-32.537-6.131c-42.274-5.031-83.355,8.944-115.603,36.068c-4.998,4.203-10.497,8.882-17.028,8.739
			c-8.795-0.193-15.147-9.901-14.29-18.658c0.853-8.758,7.014-16.146,14.014-21.474c8.611-6.551,20.61-12.327,23.354-23.751
			c2.068-8.618-2.359-17.316-6.499-25.16c-6.673-12.646-8.047-27.978-5.663-42.148l38.373-27.209
			c40.382,28.313,93.023,31.402,142.274,28.835c19.686-1.026,40.059-2.701,58.554,4.121c29.36,10.826,25.779,36.105,41.593,57.202
			c12.477,16.641,40.353,29.534,58.327,13.43c2.653-2.378,4.833-5.281,7.688-7.412c2.857-2.133,6.751-3.405,9.999-1.941
			c1.996,0.898,3.454,2.707,4.446,4.655C492.792,345.742,489.544,355.911,483.379,362.44z"/>
		<path fill="#EC6A8B" d="M104.241,272.105c0.625-5.642,4.371-11.978,12.541-18.575c16.707-13.487,37.573-18.691,55.594-27.282
			c9.877-4.708,20.25-9.344,30.465-8.197c1.824,0.204,3.761,0.685,4.895,2.329c1.157,1.68,1.185,4.155,0.951,6.423
			c-1.428,13.85-10.308,25.438-19.211,35.076c-13.34,14.435-28.584,27.583-45.735,31.811
			C125.204,298.258,102.491,287.899,104.241,272.105z"/>
		<path fill="#6D9282" d="M197.208,124.399c15.782-14.027,37.287-21.414,58.356-20.045c1.803,0.118,3.783,0.383,4.983,1.732
			c1.695,1.904,0.979,4.86,0.168,7.276c-8.493,25.294-18,52.066-39,68.526L197.208,124.399z"/>
		<path fill="#6D9282" d="M121.11,112.473c-0.999-17.186-1.998-34.372-2.998-51.558c-0.133-2.298-0.836-5.24-3.124-5.499
			c-1.041-0.118-2.031,0.427-2.925,0.974c-15.237,9.337-25.853,24.898-32.445,41.508s-9.542,34.4-12.451,52.033L121.11,112.473z"/>
		<path fill="#A3C2B2" d="M79.024,260.34c-20.549-13.881-35.969-34.15-48.781-55.382c-4.911-8.139-9.59-16.756-10.666-26.198
			c-3.56-31.264,29.76-63.254,54.519-76.123c21.745-11.303,46.665-15.782,71.16-14.982c16.02,0.522,32.103,3.285,46.824,9.625
			c29.32,12.627,51.648,39.41,60.999,69.936c4.601,15.018,6.219,31.339,1.838,46.424c-9.427,32.453-46.233,53.354-77.695,59.274
			C144.313,279.105,107.636,279.668,79.024,260.34z"/>
		<path fill="#020202" d="M103.258,142.487c0.176,1.045,0.223,1.672,0.745,2.658c0.41,0.775,0.942,1.425,1.497,2.099
			c1.322,1.601,2.64,2.959,4.488,3.96c3.576,1.939,8.109,2.129,11.849,0.57c2.897-1.206,1.469-5.669-1.581-4.667
			c-2.816,0.924-5.729,0.669-8.509-0.274c-1.242-0.421-2.674-0.972-3.733-1.76c-0.625-0.465-1.17-1.112-1.674-1.701
			c-0.43-0.503-0.979-0.972-1.379-1.458C104.446,141.282,103.087,141.47,103.258,142.487L103.258,142.487z"/>
		<path fill="#F29B9E" d="M93.811,168.688c-2.274,7.396-1.754,15.613,1.432,22.664c0.957,2.119,2.292,4.267,4.44,5.157
			c3.546,1.47,7.49-1.135,9.887-4.133c3.412-4.269,5.405-9.649,5.598-15.111c-5.803-3.04-8.885-10.474-6.935-16.727
			c-1.414,3.759-2.934,7.677-5.94,10.341c-3.006,2.665-7.984,3.57-10.971,0.884C95.474,170.054,89.66,170.396,93.811,168.688z"/>
		<path fill="#020202" d="M129.576,177.831c-4.009,1.339-8.204,1.075-11.771-1.335c-3.742-2.528-5.646-6.673-6.019-11.08
			c-0.208-2.463-0.011-4.885,0.491-7.3c0.246-1.184,0.555-2.355,0.918-3.508c0.332-1.054,0.872-2.101,1.057-3.191
			c0.389-2.297-1.938-4.918-4.222-3.284c-1.935,1.384-1.397,5.321,1.477,4.833c2.787-0.473,2.637-4.782-0.298-4.484
			c-0.063,0.005-0.126,0.013-0.189,0.019c0.677,0.335,1.354,0.672,2.031,1.009c-1.94-0.189-3.088,0.363-3.445,1.656
			c-0.09,0.257-0.18,0.515-0.27,0.773c-0.202,0.583-0.396,1.167-0.574,1.758c-0.297,0.994-0.555,1.998-0.767,3.011
			c-0.463,2.203-0.705,4.47-0.693,6.722c0.023,4.173,1.194,8.698,3.846,11.996c4.051,5.038,13.866,9.049,18.891,3.106
			C130.315,178.204,129.996,177.69,129.576,177.831L129.576,177.831z"/>
		<path fill="#020202" d="M84.131,164.641c-0.667,7.562,8.642,11.361,14.814,9.058c8.648-3.225,13.854-14.072,13.401-22.922
			c-0.136-2.658-4.541-3.12-4.811-0.327c-0.395,4.082-0.871,7.854-2.673,11.607c-1.385,2.883-3.433,5.598-6.16,7.33
			c-4.973,3.161-12.574,1.5-14.064-4.776C84.581,164.362,84.154,164.384,84.131,164.641L84.131,164.641z"/>
		<path fill="#020202" d="M177.861,151.135c-1.455,0.415-2.611,0.88-3.65,2.011c-0.97,1.054-1.706,2.304-2.196,3.646
			c-1.029,2.813-0.983,5.999,0.333,8.713c0.44,0.906,1.697,1.747,2.677,0.918c3.955-3.346,5.821-8.236,5.677-13.372
			c-0.041-1.45-1.649-2.479-2.988-1.995c-6.747,2.432-8.259,11.38-3.714,16.498c0.984,1.108,2.673,0.637,3.603-0.194
			c2.386-2.136,3.927-4.942,4.612-8.058c0.397-1.802-1.086-3.059-2.729-3.13c-3.55-0.153-6.442,2.808-6.563,6.251
			c-0.106,3.001,4.374,3.004,5.056,0.343c0.26-1.016,0.809-1.427,1.854-1.385c-0.91-1.043-1.82-2.087-2.729-3.13
			c-0.491,2.267-1.615,4.12-3.298,5.701c1.201-0.064,2.402-0.129,3.604-0.194c-2.2-2.359-1.074-7.029,1.758-8.409
			c-0.996-0.667-1.992-1.332-2.989-1.998c0.537,3.917-0.863,7.478-3.467,10.387c0.941,0.069,1.882,0.14,2.823,0.209
			c-2.572-3.839-0.658-9.216,2.787-11.873C178.791,151.712,178.453,150.967,177.861,151.135L177.861,151.135z"/>
		<path fill="#020202" d="M67.16,134.766c2.279-1.707-1.094-4.513-3.158-2.7c-1.296,1.137-1.839,3.174-2.129,4.802
			c-0.378,2.132-0.225,4.236,0.286,6.329c0.25,1.019,1.529,1.516,2.452,1.211c5.289-1.748,8.138-8.098,6.079-13.246
			c-0.448-1.121-1.593-1.737-2.777-1.373c-2.314,0.712-4.032,2.549-4.768,4.834c-0.772,2.401-0.419,5.568,2.277,6.467
			c2.353,0.785,5.935-0.419,6.047-3.273c0.109-2.757-2.711-4.879-5.313-3.926c-2.297,0.842-1.753,4.844,0.875,4.402
			c0.037-0.007,0.169-1.566,0.117-1.612c0.04,0.034-0.653-0.204-0.636-0.192c0.381,0.439,0.761,0.879,1.142,1.319
			c-0.612-1.546,0.033-3.306,1.663-3.871c-0.926-0.457-1.852-0.915-2.777-1.372c1.355,3.073-0.008,6.854-3.171,8.177
			c0.818,0.404,1.635,0.808,2.453,1.211c-0.836-2.552-1.145-6.512,0.975-8.527c-0.273,0.134-0.547,0.267-0.82,0.4
			c0.027-0.115,0.053-0.229,0.079-0.344C65.559,134.208,66.31,135.404,67.16,134.766L67.16,134.766z"/>
		<path fill="#6D9282" d="M325.66,328.869c3.58-4.232,7.645-8.034,12.022-11.438c0.434-0.34-0.002-1.027-0.479-0.724
			c-8.846,5.634-16.287,13.333-21.981,22.115c-2.84,4.377-5.293,9.078-7.087,13.98c-1.44,3.943-2.611,8.167-2.722,12.4
			c2.2,2.359,3.717,5.253,5.241,8.181c0.138-0.116,0.276-0.229,0.419-0.339c-2.505-5.791-1.132-13.429,0.749-19.235
			C314.779,344.689,319.474,336.193,325.66,328.869z"/>
	</g>
	<path fill="#6D9282" d="M162.791,184.078c1.402,2.343,4.736,2.926,7.186,3.746c3.664,1.227,7.344,2.397,11.022,3.581
		c7.16,2.305,14.303,4.662,21.505,6.83c4.936,1.485,6.998-6.142,2.121-7.694c-7.17-2.28-14.47-4.099-21.833-5.644
		c-3.595-0.755-7.196-1.426-10.823-2.013c-2.696-0.437-6.443-1.597-8.863-0.011C162.712,183.132,162.536,183.652,162.791,184.078
		L162.791,184.078z"/>
	<path fill="#6D9282" d="M157.23,195.877c1.778,2.762,4.748,4.924,7.179,7.113c2.631,2.369,5.444,4.512,8.264,6.651
		c5.881,4.462,12.141,8.388,18.575,11.994c3.859,2.162,7.252-3.646,3.464-5.927c-6.144-3.698-12.217-7.514-18.353-11.224
		c-2.978-1.802-5.899-3.688-8.906-5.44c-2.848-1.659-5.705-3.927-8.832-4.978C157.613,193.729,156.659,194.992,157.23,195.877
		L157.23,195.877z"/>
	<path fill="#6D9282" d="M52.265,152.357c-1.849-2.317-5.017-3.641-7.637-4.922c-3.183-1.556-6.365-3.124-9.558-4.658
		c-3.029-1.457-6.093-2.841-9.117-4.31c-3.149-1.53-6.269-3.342-9.655-4.285c-4.512-1.256-6.618,4.752-3.051,7.237
		c2.867,1.998,6.354,3.165,9.576,4.475c3.291,1.336,6.588,2.701,9.944,3.87c3.164,1.099,6.372,2.126,9.587,3.066
		c2.949,0.864,6.358,1.962,9.433,1.341C52.667,153.995,52.729,152.938,52.265,152.357L52.265,152.357z"/>
	<path fill="#6D9282" d="M41.469,166.34c-1.883-1.075-4.262-0.896-6.4-1.011c-2.772-0.148-5.544-0.227-8.316-0.412
		c-5.583-0.371-11.138-1.186-16.588-2.453c-5.432-1.266-7.634,7.35-2.277,8.258c6.078,1.03,12.107,1.54,18.27,1.192
		c2.835-0.16,5.69-0.536,8.467-1.132c2.376-0.51,5.367-1.007,7.046-2.874C42.093,167.438,42.051,166.674,41.469,166.34
		L41.469,166.34z"/>
</g>
</svg>
