<?xml version="1.0" encoding="utf-8"?>
<!-- Generator: Adobe Illustrator 16.0.0, SVG Export Plug-In . SVG Version: 6.00 Build 0)  -->
<!DOCTYPE svg PUBLIC "-//W3C//DTD SVG 1.1//EN" "http://www.w3.org/Graphics/SVG/1.1/DTD/svg11.dtd">
<svg version="1.1" id="Layer_1" xmlns="http://www.w3.org/2000/svg" xmlns:xlink="http://www.w3.org/1999/xlink" x="0px" y="0px"
	  viewBox="0 0 500 500" enable-background="new 0 0 500 500" xml:space="preserve">
<g>
	<path fill="#E74041" d="M81.054,454.753c-3.744,0.038-7.032,0.04-10.723-0.911c-3.092-0.802-6.089-1.928-9.184-2.715
		c-6.563-1.671-12.879-0.945-19.191,1.329c-2.953,1.067-5.942,2.322-9.115,2.489c-3.13,0.166-6.185-0.748-9.119-1.742
		c-5.667-1.921-10.863-4.413-16.992-4.065c-2.155,0.123-2.039,2.998,0,3.267c6.238,0.824,11.808,4.263,17.72,6.18
		c6.175,2.003,11.752,1.16,17.73-1.042c7.246-2.669,13.748-3.08,21.288-1.335c5.611,1.297,12.688,3.473,18.088,0.396
		C82.409,456.116,82.037,454.741,81.054,454.753L81.054,454.753z"/>
	<path fill="#EF8184" d="M145.051,427.338c-0.026,0.382-0.061,0.771-0.109,1.152c-0.937,7.77-4.551,14.83-9.436,21.025
		c-2.842,3.602-6.116,6.916-9.546,9.9c-1.844,1.607-3.764,3.156-5.821,4.478c-1.374,0.886-2.802,1.673-4.313,2.295
		c-2.671,1.113-5.5,1.709-8.384,1.92c0,0.006,0,0.006-0.007,0c-1.284,0.094-2.582,0.115-3.874,0.075
		c-2.514-0.082-5.035-0.405-7.496-0.868c-1.229-0.233-2.459-0.506-3.676-0.813c-0.525-0.13-1.052-0.273-1.571-0.422
		c-10.257-2.877-19.823-8.475-26.389-16.817c-8.186-10.398-9.197-23.812-5.22-35.866c0.314-0.976,0.669-1.945,1.06-2.903
		c2.023-5.028,4.926-9.743,8.527-13.816c0.554-0.634,1.128-1.242,1.722-1.845c5.173-5.247,11.596-9.204,18.838-11.043
		c0.43-0.108,0.854-0.21,1.292-0.292c1.64-0.355,3.314-0.58,5.001-0.695c15.238-1.021,31.847,7.255,41.427,19.725
		c1.804,2.336,3.355,4.825,4.599,7.428c1.168,2.409,2.063,4.919,2.658,7.502C145.072,420.661,145.339,423.969,145.051,427.338z"/>
	<path fill="#E74041" d="M98.282,442.524c-0.247-0.074-0.486-0.17-0.725-0.299c-3.936-2.098-7.482-5.116-11.097-7.735
		c-3.293-2.378-6.595-4.755-9.88-7.141c-3.389-2.459-6.758-4.986-10.044-7.585c-2.357-1.857-5.446-3.859-7.325-6.368
		c0.314-0.976,0.669-1.945,1.06-2.903c3.334,0.663,6.56,2.932,9.442,4.564c3.703,2.105,7.359,4.347,10.96,6.622
		c7.12,4.488,15.073,8.555,21.551,13.944c0.089,0.069,0.178,0.144,0.26,0.212C105.954,438.754,101.99,443.64,98.282,442.524z"/>
	<path fill="#E74041" d="M105.386,430.931c-0.259-0.122-0.512-0.295-0.758-0.513c-6.32-5.569-12.108-11.781-18.333-17.457
		c-3.116-2.843-6.3-5.604-9.416-8.439c-2.753-2.509-5.841-4.852-8.083-7.845c0.554-0.634,1.128-1.242,1.722-1.845
		c3.52,1.553,6.594,4.155,9.669,6.438c3.218,2.392,6.314,4.946,9.402,7.503c6.62,5.466,13.563,10.966,19.432,17.251
		c0.021,0.021,0.035,0.042,0.055,0.063C111.503,428.777,108.23,432.373,105.386,430.931z"/>
	<path fill="#E74041" d="M117.652,419.718c-0.465-0.568-0.93-1.134-1.387-1.702c-4.584-5.652-8.978-11.466-13.358-17.26
		c-2.528-3.341-4.968-6.729-7.379-10.146c-1.62-2.288-3.423-4.641-4.879-7.113c1.64-0.355,3.314-0.58,5.001-0.695
		c1.49,1.72,2.89,3.531,4.312,5.213c2.412,2.862,4.837,5.719,7.215,8.609c4.632,5.601,9.388,11.108,14.035,16.697
		c0.431,0.521,0.861,1.033,1.284,1.552C125.291,418.25,120.46,423.119,117.652,419.718z"/>
	<path fill="#E74041" d="M141.676,409.954c-4.981,3.033-10.065,5.737-14.684,9.429c-4.974,3.978-9.662,8.314-13.871,13.106
		c-4.332,4.946-8.213,10.364-11.541,16.036c-1.654,2.809-3.157,5.699-4.51,8.663c-1.297,2.842-2.214,6.233-4.017,8.78
		c-0.178,0.26-0.417,0.438-0.663,0.533c-0.56,0.22-1.209,0.054-1.571-0.422c-0.151-0.207-0.252-0.473-0.274-0.787
		c-0.177-3.383,1.32-7.236,2.427-10.386c1.099-3.131,2.364-6.211,3.758-9.217c0.499-1.067,1.011-2.126,1.552-3.166
		c1.208-2.363,2.527-4.659,3.941-6.9c1.004-1.59,2.057-3.156,3.163-4.693c0.767-1.073,1.552-2.125,2.365-3.17
		c0.431-0.562,0.875-1.114,1.326-1.675c2.208-2.731,4.612-5.458,7.188-8.07c1.585-1.618,3.239-3.19,4.947-4.694
		c4.878-4.312,10.215-8.083,15.865-10.795C138.881,404.862,140.433,407.352,141.676,409.954z"/>
	<path fill="#E74041" d="M145.051,427.338c-2.336,2.108-4.769,4.14-6.962,6.299c-3.867,3.806-7.68,7.679-11.35,11.677
		c-3.668,3.99-7.146,8.14-10.624,12.292c-2.761,3.303-5.385,7.537-8.672,10.503c0,0.006,0,0.006-0.007,0
		c-1.284,0.094-2.582,0.115-3.874,0.075c0-0.082,0.013-0.157,0.028-0.239c1.1-5.064,5.369-10.174,8.28-14.361
		c3.137-4.511,6.587-8.83,10.086-13.052c3.724-4.503,7.597-8.863,11.704-13.031c3.335-3.374,6.759-7.222,10.673-10.044
		C145.072,420.661,145.339,423.969,145.051,427.338z"/>
	<path fill="#7A6A58" d="M196.115,408.728c-5.086,11.238-19.384,15.817-31.524,13.635c-12.141-2.183-22.625-9.533-32.671-16.69
		c-12.729-9.071-31.896-23.652-48.303-13.025c-3.805,2.466-6.282,6.468-9.368,9.788c-3.086,3.323-7.513,6.153-11.919,5.087
		c-7.393-1.79-8.205-12.424-4.781-19.219c10.736-21.31,40.57-25.914,61.63-23.666c12.528,1.339,21.646,1.271,32.702,7.445
		c14.931,8.337,29.874,14.521,47.127,15.979L196.115,408.728z"/>
	<path fill="#685646" d="M161.247,189.161c-1.35-1.958-1.264-4.535-1.068-6.905c2.03-24.44,10.417-48.326,24.112-68.67
		c16.891,6.799,30.892,19.893,40.22,35.53c9.328,15.638,14.154,33.708,15.517,51.865L161.247,189.161z"/>
	<path fill="#BBA38E" d="M159.321,330.894c0.063,2.577-1.101,5.158-3.075,6.813c14.793,16.258,18.878,39.23,23.564,60.704
		c3.158,14.468,6.859,28.816,11.092,43.005c4.045,13.56,10.513,28.89,24.189,32.513c2.981,0.79,6.35,0.875,8.956-0.774
		c2.522-1.596,3.872-4.484,5.919-6.654c4.922-5.211,12.954-5.566,20.121-5.568c40.925-0.015,81.851-0.03,122.778-0.047
		c6.476-0.002,12.964-0.004,19.405,0.676c6.348,0.672,12.604,2.002,18.842,3.355c10.185,2.214,20.47,4.52,30.889,4.316
		c10.42-0.201,21.165-3.177,28.788-10.286c12.761-11.901,13.649-31.723,11.417-49.028c-4.133-32.019-16.362-63.593-38.301-87.283
		c-21.937-23.687-54.203-38.655-86.376-35.964c-30.377,2.541-57.264,19.733-83.008,36.053c-9.371,5.939-20.462,12.068-30.98,8.532
		c-8.681-2.917-14.34-12.869-12.408-21.821L159.321,330.894z"/>
	<g>
		<path fill="#F8B133" d="M191.376,367.092c5.597-0.43,11.263-0.935,16.546-2.834c5.752-2.067,10.792-5.699,15.746-9.281
			c11.429-8.269,23.461-17.305,28.345-30.539c0.469-1.269,0.847-2.759,0.144-3.913c-0.511-0.842-1.471-1.284-2.391-1.635
			c-15.167-5.797-32,0.516-46.985,6.767c-11.843,4.94-32.917,11.076-39.617,23.08C153.444,366.149,180.531,367.923,191.376,367.092z
			"/>
	</g>
	<path fill="#BBA38E" d="M205.914,349.226c-7.917,2.844-16.078,5.726-24.485,5.402c-8.697-0.334-16.861-4.069-24.678-7.896
		c-13.417-6.564-26.874-13.801-37.051-24.732c-23.796-25.564-24.173-66.155-11.323-98.631c9.505-24.023,26.16-46.134,49.435-57.347
		c30.255-14.575,66.319-8.76,98.211,1.757c23.316,7.689,48.295,20.274,55.836,43.639c3.73,11.562,2.504,24.168-0.313,35.986
		c-4.918,20.624-14.786,40.103-28.315,56.417c-9.418,11.353-23.364,17.652-35.919,24.778
		C233.494,336.442,221.026,343.798,205.914,349.226z"/>
	<path fill="#1D1D1B" d="M298.108,197.532c0.586,3.479-0.437,7.532,2.938,9.899c3.759,2.638,8.599-0.482,9.753-4.416
		c1.364-4.645-1.915-9.33-4.645-12.776c-2.756-3.481-7.485-6.155-11.704-3.342c-4.053,2.701-4.793,7.886-3.429,12.26
		c1.291,4.136,3.523,8.689,7.157,11.239c3.658,2.567,8.747,1.51,10.86-2.502c2.335-4.434,0.578-9.125-2.271-12.827
		c-1.546-2.009-3.203-4.417-5.867-4.897c-2.589-0.467-5.062,1.08-6.296,3.317c-2.905,5.261,1.425,9.719,5.343,12.725
		c1.602,1.229,3.609-0.198,4.187-1.703c0.853-2.213,0.87-4.788,0.119-7.036c-0.713-2.136-2.445-5.191-4.794-5.838
		c-2.726-0.75-4.883,2.105-5.025,4.514c-0.134,2.276,1.227,4.495,3.509,5.042c3.532,0.846,4.952-4.337,1.496-5.43
		c0.312,0.098,0.518,0.38,0.687,0.632c0.113,0.167-0.001-0.439,0.009,0.037c0.004,0.284-0.071,0.164,0.027-0.062
		c-0.116,0.268-0.386,0.689-0.702,0.775c-0.734-0.097-1.468-0.192-2.201-0.289c1.896,1.426,2.17,4.078,1.379,6.14
		c1.397-0.567,2.792-1.136,4.188-1.704c-1.27-0.973-4.019-2.967-3.387-4.74c0.098-0.272,0.796-0.859,0.296-0.849
		c0.745-0.017,2.151,2.246,2.579,2.804c1.356,1.781,2.909,4.224,1.867,6.518c-0.687,1.519-2.075,1.386-3.218,0.451
		c-1.913-1.567-3.084-4.099-4.002-6.336c-0.886-2.159-1.811-5.129-0.085-7.138c1.499-1.741,3.364-0.309,4.6,0.987
		c1.816,1.906,4.019,4.514,4.54,7.156c0.226,1.146,0.044,2.168-0.842,2.981c-0.555,0.506-1.254,0.859-1.854,0.264
		c-0.608-0.603-0.646-1.811-0.723-2.611c-0.135-1.454-0.221-2.907-0.528-4.339C301.509,193.825,297.678,194.967,298.108,197.532
		L298.108,197.532z"/>
	<path fill="#1D1D1B" d="M253.764,183.532c0.475-2.318-2.972-2.496-4.381-1.684c-2.914,1.681-1.97,5.837-1.07,8.402
		c0.968,2.758,2.782,5.852,6.024,6.098c3.339,0.253,5.786-2.656,6.125-5.772c0.204-1.872-0.281-3.707-0.952-5.439
		c-0.637-1.644-1.259-3.385-2.812-4.388c-2.93-1.893-6.8,0.346-7.742,3.401c-0.607,1.966-0.228,4.024,0.351,5.943
		c0.525,1.746,1.15,3.525,2.574,4.747c2.725,2.339,7.477,1.036,7.64-2.87c0.155-3.722-3.039-8.512-7.208-7.418
		c-2.17,0.57-3.5,2.72-2.892,4.901c0.559,2,2.714,3.497,4.773,2.721c3.116-1.173,1.906-6.077-1.4-5.083
		c0.042-0.01,0.08-0.019,0.123-0.028c0.445,0.12,0.894,0.242,1.34,0.362c0.164,0.385,0.083,0.78-0.243,1.188
		c0.152,0.796-0.049,1.164-0.609,1.101c0.009,0.062,0.169,0.132,0.169,0.247c-0.001,0.149,0.339,0.782,0.382,0.906
		c0.045,0.131,0.087,0.264,0.13,0.396c0.047,0.565,0.155,0.615,0.325,0.147c-0.051,0.029,0.599-0.671,0.563-0.603
		c0.187-0.368,0.177,0.331,0.122-0.124c-0.011-0.098-0.44-0.931-0.48-1.041c-0.168-0.469-0.319-0.954-0.458-1.432
		c-0.272-0.941-0.883-2.637,0.273-3.169c0.015-0.006-0.212,0.004-0.286-0.059c0.265,0.227,0.426,0.772,0.569,1.072
		c0.391,0.811,0.752,1.633,0.997,2.502c0.292,1.042,0.496,2.885-0.724,3.495c-1.124,0.563-2.095-0.947-2.573-1.754
		c-0.803-1.347-1.519-3.044-1.688-4.61c-0.182-1.678,0.905-2.833,2.508-1.94C253.426,183.854,253.718,183.766,253.764,183.532
		L253.764,183.532z"/>
	<path fill="#7A6A58" d="M404.659,449.263c-13.681-3.094-27.494-8.634-36.482-19.403c-4.882-5.848-8.095-12.955-13.081-18.715
		c-8.375-9.674-21.027-14.669-33.623-16.907c-12.646-2.246-26.419-1.857-37.353,4.879c-11.84,7.291-18.686,21.933-16.687,35.691
		c1.887,12.998,10.934,24.159,22.009,31.215c11.074,7.06,24.046,10.517,36.952,12.959c20.906,3.956,42.226,5.513,63.504,5.395
		c20.821-0.12,42.238-1.993,60.884-11.263c10.685-5.317,21.6-10.575,31.046-17.967c4.385-3.432,9.771-7.79,12.011-12.967
		c2.601-6.009,1.59-13.853-0.464-19.838c-1.754-5.121-5.195-13.156-9.591-16.584c-3.579-2.796-2.076,1.562-1.965,4.425
		c0.275,7.18,1.302,15.563-3.661,21.433c-2.517,2.978-5.251,5.776-8.273,8.245c-6.335,5.174-13.79,8.651-21.761,10.435
		C433.85,453.484,418.833,452.469,404.659,449.263z"/>
	<path fill="#1D1D1B" d="M300.149,209.241c0.093,0.275,0.241,0.315,0.452,0.481c0.354,0.283,0.789,0.342,1.134,0.72
		c0.26,0.285,0.438,0.612,0.621,0.95c0.769,1.408,1.268,3.024,1.734,4.555c0.818,2.704,1.346,6.156-0.778,8.42
		c-1.624,1.729-4.329,2.33-6.535,1.477c-2.417-0.937-4.01-3.244-4.611-5.686c-0.714-2.901-5.125-1.671-4.47,1.232
		c0.896,3.954,3.634,7.339,7.463,8.768c3.581,1.335,8.085,0.428,10.747-2.355c3.081-3.219,3.02-7.805,1.521-11.749
		c-1.016-2.672-3.171-8.123-6.826-7.539c-0.273,0.043-0.454,0.35-0.461,0.603C300.138,209.16,300.14,209.201,300.149,209.241
		L300.149,209.241z"/>
	<path fill="#00A099" d="M184.293,360.683c-12.877-5.437-29.383-7.913-38.899,5.07c-14.336,19.563,4.555,40.389,25.923,35.972
		c9.171-1.896,17.34-8.493,20.714-17.232C195.359,375.878,192.802,364.273,184.293,360.683z"/>
	<path fill="#2D2E82" d="M160.937,371.84c-1.101,2.85-1.336,6.233-1.263,9.262c0.076,3.104,0.52,6.393,1.729,9.27
		c0.602,1.432,2.932,0.902,2.407-0.665c-0.978-2.924-1.908-5.776-2.193-8.867c-0.278-3.014,0.123-5.862,0.436-8.848
		C162.126,371.306,161.149,371.289,160.937,371.84L160.937,371.84z"/>
	<path fill="#2D2E82" d="M152.859,383.115c6.728-0.307,13.449-1.06,20.156-1.667c1.704-0.154,1.69-2.855,0-2.663
		c-6.802,0.771-13.645,1.404-20.407,2.478C151.558,381.431,151.806,383.163,152.859,383.115L152.859,383.115z"/>
	<path fill="#7A6A58" d="M131.719,220.537c11.854-5.813,23.71-11.626,35.566-17.438c2.841-1.394,5.814-2.9,7.567-5.534
		c8.408-12.639-18.362-29.313-26.665-34.529c-15.418-9.684-33.843-14.978-51.979-13.35c-3.503,0.314,0.426,38.033,1.051,41.691
		c2.314,13.551,6.393,26.386,12.851,38.414c5.138,9.57,11.088,1.378,16.415-3.215c6.748-5.819,14.01-11.043,21.677-15.586
		L131.719,220.537z"/>
	<path fill="#7A6A58" d="M212.816,430.449c-2.453,2.691-4.678,5.763-6.588,8.861c-4.375,7.104-8.268,9.857-17.101,11.472
		c-17.366,3.176-35.1,4.341-52.732,3.462c-5.408-0.267-10.988-0.706-16.091,1.101c-5.105,1.804-9.623,6.577-9.195,11.974
		c0.339,4.271,3.693,7.837,7.581,9.641c3.888,1.81,8.268,2.175,12.544,2.472c40.958,2.836,82.193,1.654,122.923-3.522
		c3.902-0.499,3.9-4.836,4.239-8.759c0.338-3.921-0.754-7.821-2.075-11.53c-3.42-9.596-8.473-18.605-14.875-26.53
		C231.544,416.831,220.935,421.548,212.816,430.449z"/>
	<path fill="#1D1D1B" d="M250.177,223.296c-2.057-1.27-4.116-0.479-6.313,0.091c-2.685,0.696-5.344,1.461-7.988,2.302
		c-5.348,1.704-11.011,3.292-15.902,6.095c-3.902,2.237-1.315,8.981,3.134,7.435c5.348-1.857,10.32-4.792,15.454-7.16
		c2.5-1.153,5.003-2.301,7.51-3.437c2.17-0.982,3.834-1.495,4.74-3.771C251.036,224.283,250.656,223.591,250.177,223.296
		L250.177,223.296z"/>
	<path fill="#1D1D1B" d="M258.389,232.762c-2.273,0.596-3.92,2.346-5.585,3.934c-2.071,1.979-4.105,3.994-6.191,5.957
		c-4.177,3.935-8.615,7.6-13.082,11.198c-3.87,3.117,1.646,8.643,5.48,5.48c4.597-3.791,8.783-7.953,12.742-12.407
		c2.955-3.326,8.037-8.251,8.218-12.958C260.004,233.142,259.147,232.563,258.389,232.762L258.389,232.762z"/>
</g>
</svg>
