<?xml version="1.0" encoding="utf-8"?>
<!-- Generator: Adobe Illustrator 16.0.0, SVG Export Plug-In . SVG Version: 6.00 Build 0)  -->
<!DOCTYPE svg PUBLIC "-//W3C//DTD SVG 1.1//EN" "http://www.w3.org/Graphics/SVG/1.1/DTD/svg11.dtd">
<svg version="1.1" id="Layer_1" xmlns="http://www.w3.org/2000/svg" xmlns:xlink="http://www.w3.org/1999/xlink" x="0px" y="0px"
	 width="500px" height="500px" viewBox="0 0 500 500" enable-background="new 0 0 500 500" xml:space="preserve">
<g>
	<g>
		<path fill="#FABB57" d="M389.582,339.126c16.527-4.486,32.81-16.785,41.267-31.622c10.159-17.829,8.945-42.785-6.15-56.686
			c-13.592-12.519-36.389-15.633-43.634-32.631c-6.011-14.104,3.501-31.359,17.485-37.636c13.987-6.277,30.55-3.634,44.567,2.578
			c34.6,15.335,58.271,54.354,52.219,91.712c-3.295,20.337-14.568,38.829-29.289,53.241c-13.979,13.689-31.36,23.684-49.995,29.537
			c-22.271,6.993-76.211,16.043-94.116-5.901c-10.506-12.873,5.003-12.702,16.625-12.489
			C355.487,339.537,372.876,343.66,389.582,339.126z"/>
		<path fill="#FFD556" d="M95.901,340.999c0.751,4.495,1.564,8.965,2.385,13.398c4.417,23.853,8.977,47.68,13.679,71.48
			c3.986,20.161,8.255,40.787,19.074,58.264c1.177,1.902,2.589,3.884,4.721,4.56c6.447,2.046,9.07-8.075,8.057-14.761
			c-1.285-8.485-2.571-16.973-3.855-25.459c-0.248-1.649-0.463-3.45,0.021-4.996c0.151-0.493,0.376-0.96,0.695-1.387
			c1.381-1.858,3.998-2.246,6.311-2.152c12.327,0.492,22.469,9.994,29.271,20.281c1.023,1.547,1.999,3.124,2.95,4.72
			c5.375,9.028,9.896,18.645,16.914,26.43c2.601,2.886,6.994,5.598,10.046,3.193c1.341-1.06,1.903-2.811,2.29-4.473
			c1.81-7.764,1.347-16.043-1.313-23.556c57.019,10.729,116.328,9.114,172.68-4.699c14.442-3.539,34.191-8.214,46.595,2.87
			c8.021,7.167,13.482,37.89,25.905,18.705c9.005-13.907-5.243-40.47-10.399-53.734c-7.488-19.276-16.633-37.911-27.331-55.613
			c-11.629-19.243-25.426-37.742-43.929-50.516c-14.683-10.134-31.74-16.26-48.886-21.183
			c-26.948-7.731-54.672-12.764-82.621-14.992c-4.556-0.36-9.14-0.653-13.697-1.108c-6.003-0.599-11.956-1.48-17.739-3.172
			c-9.092-2.664-17.476-7.254-25.917-11.561c-15.771-8.045-32.005-15.184-48.594-21.375c-5.061-1.887-10.415-3.715-15.756-2.906
			c-9.713,1.473-16.031,11.019-19.416,20.241C89.481,290.809,91.759,316.245,95.901,340.999z"/>
		<path fill="#FFE498" d="M125.972,371.54c2.12,24.388,6.831,48.546,14.011,71.945c0.151-0.493,0.376-0.96,0.695-1.387
			c1.381-1.858,3.998-2.246,6.311-2.152c12.327,0.492,22.469,9.994,29.271,20.281c1.023,1.547,1.999,3.124,2.95,4.72
			c-8.254-24.893-14.158-50.568-17.603-76.567c-1.678-12.647-2.972-25.945-10.043-36.562c-2.277-3.418-5.366-6.618-9.37-7.504
			c-6.046-1.341-12.159,3.24-14.622,8.921C125.111,358.917,125.438,365.372,125.972,371.54z"/>
		<path fill="#FABB57" d="M143.625,147.953c2.576-16.467,2.766-33.306,0.564-49.828c-0.957-7.174-2.836-15.045-8.83-19.101
			c-24.308,14.802-37.076,43.07-43.538,70.786c-1.152,4.941-1.854,10.926,1.876,14.363L143.625,147.953z"/>
		<path fill="#FABB57" d="M229.909,237.229c14.384-8.422,27.547-18.925,38.949-31.082c4.952-5.278,9.86-11.713,9.209-18.92
			c-26.84-9.464-56.811-1.473-82.365,11.055c-4.555,2.232-9.634,5.474-9.937,10.538L229.909,237.229z"/>
		<path fill="#1D1D1B" d="M95.9,341.001c12.574,6.656,26.828,9.595,40.9,10.92c17.522,1.646,35.835,0.836,51.649-7.36
			c18.11-9.387,35.592-34.58,37.014-58.287c-6.002-0.599-11.956-1.48-17.739-3.174c-9.092-2.662-17.476-7.253-25.916-11.559
			c-15.771-8.046-32.005-15.184-48.594-21.375c-5.061-1.888-10.414-3.716-15.756-2.907c-9.713,1.474-16.031,11.02-19.416,20.241
			C89.481,290.81,91.758,316.246,95.9,341.001z"/>
		<path fill="#FFD556" d="M157.138,330.745c13.631-1.89,26.783-5.993,38.552-12.386c31.256-16.971,50.387-55.099,39.248-89.908
			c-7.968-24.898-25.371-46.078-46.286-61.76c-17.632-13.221-38.235-22.981-60.104-25.716C88.255,135.938,45.01,158.277,29,195.597
			c-11.498,26.802-5.25,53.106,6.958,78.085C57.29,317.33,110.071,337.261,157.138,330.745z"/>
		<path fill="#1D1D1B" d="M91.526,217.422c-1.978,1.711-4.476,2.828-6.881,3.816c-2.579,1.059-5.222,1.808-7.986,2.191
			c-5.183,0.717-10.475,0.125-15.207-2.199c-8.442-4.144-14.208-13.953-11.831-23.344c0.795-3.142,5.657-1.81,4.859,1.339
			c-1.89,7.463,3.075,15.029,9.609,18.353c3.969,2.019,8.713,2.475,13.093,2.074c2.252-0.206,4.499-0.661,6.669-1.287
			c2.326-0.67,4.481-1.75,6.771-2.492C91.484,215.595,92.227,216.816,91.526,217.422L91.526,217.422z"/>
		<path fill="#1D1D1B" d="M149.66,251.078c-3.96,7.741-2.362,18.094,4.249,23.903c6.788,5.963,17.231,5.535,24.255,0.279
			c2.083-1.558,4.759,1.911,2.79,3.618c-6.576,5.691-16.141,6.756-24.074,3.383c-7.832-3.33-12.715-11.159-12.981-19.578
			c-0.145-4.563,1.034-9.08,3.66-12.833C148.451,248.575,150.381,249.669,149.66,251.078L149.66,251.078z"/>
		<path fill="#1D1D1B" d="M97.373,254.615c2.621,0.811,2.783,4.518,1.075,6.295c-1.2,1.251-3.107,0.519-4.407-0.246
			c-1.331-0.786-2.45-1.996-3.093-3.402c-0.779-1.7-1.209-3.59,0.651-4.744c1.214-0.753,2.765-0.801,4.081-0.298
			c1.351,0.516,2.547,1.489,3.168,2.813c0.677,1.447,0.764,3.665-0.63,4.741c-1.521,1.173-4.132,0.571-5.602-0.405
			c-1.728-1.148-2.706-2.896-2.855-4.951c-0.1-1.363,1.181-2.294,2.392-2.391c3.107-0.249,8.543,2.114,7.451,6.082
			c-0.549,1.991-2.817,2.852-4.558,1.767c-1.933-1.204-1.815-3.603-0.064-4.88c0.973-0.709,2.493-0.26,3.157,0.63
			c0.726,0.972,0.684,2.329-0.19,3.214c-0.04,0.038-0.079,0.079-0.118,0.118c0.211-0.36,0.422-0.724,0.633-1.085
			c-0.011,0.042-0.021,0.088-0.031,0.131c0-0.438,0-0.876,0-1.314c-0.708-0.401-1.416-0.805-2.124-1.209
			c-0.363,0.211-0.726,0.422-1.089,0.635c-0.037,0.033-0.074,0.066-0.111,0.099c-0.112,0.413-0.223,0.827-0.336,1.241
			c-0.042,0.5,0.336,0.24-0.129,0.021c-0.239-0.113-0.445-0.31-0.693-0.418c-0.599-0.263-1.151-0.287-1.798-0.248
			c0.797-0.798,1.593-1.595,2.391-2.392c0.032,0.615,0.962,1.48,1.674,1.344c-0.457,0.352-0.914,0.702-1.372,1.054
			c-0.138,0.304-0.052,0.173-0.131-0.038c0.129,0.347-0.243-0.225-0.028-0.015c-0.052-0.05-0.382-0.389-0.306-0.327
			c-0.167-0.135-0.367-0.254-0.642-0.299c-0.103-0.018-0.261,0.131-0.011-0.063c0.201-0.487,0.403-0.973,0.604-1.461
			c-0.052,1.92,1.317,3.476,3.142,3.942c-0.402,0.052-0.804,0.104-1.206,0.157c1.09-0.62,0.711-2.005,0.158-2.865
			C96.031,255.236,96.686,254.402,97.373,254.615L97.373,254.615z"/>
		<path fill="#1D1D1B" d="M96.586,259.233c-2.993,6.924-5.118,14.781-3.104,22.3c1.398,5.223,5.021,11.007,10.95,11.438
			c2.941,0.215,3.009,4.739,0,4.635c-7.87-0.275-13.105-7.204-14.836-14.346c-2.036-8.394,0.141-18.381,5.625-25.078
			C95.902,257.351,96.942,258.412,96.586,259.233L96.586,259.233z"/>
		<path fill="#1D1D1B" d="M94.626,257.909c0.151,4.259-2.944,8.598-6.052,11.251c-3.491,2.982-8.191,4.763-12.811,4.468
			c-9.533-0.607-17.699-8.451-18.462-17.983c-0.201-2.508,4.033-3.124,4.438-0.601c1.12,6.986,6.905,13.383,14.242,13.781
			c3.64,0.196,7.086-0.904,10.147-2.835c3.381-2.134,5.108-5.134,7.095-8.461C93.613,256.876,94.6,257.171,94.626,257.909
			L94.626,257.909z"/>
	</g>
	<path fill="#EE772A" d="M151.979,301.78c1.917,4.869,7.201,9.074,11.065,12.474c4.533,3.988,9.314,7.578,14.456,10.74
		c5.051,3.107,9.833-5.11,4.635-7.931c-4.957-2.69-9.875-5.536-14.546-8.699c-4.195-2.84-8.414-7.276-13.114-9.079
		C153.096,298.757,151.433,300.395,151.979,301.78L151.979,301.78z"/>
	<path fill="#EE772A" d="M141.785,314.647c0.402,4.177,3.517,7.972,5.573,11.549c2.463,4.287,4.922,8.574,7.477,12.81
		c2.945,4.881,10.801-0.008,7.5-4.386c-2.88-3.82-5.829-7.584-8.789-11.342c-2.597-3.3-5.248-8.249-9.029-10.198
		C143.406,312.507,141.646,313.187,141.785,314.647L141.785,314.647z"/>
</g>
<path fill="#EE772A" d="M46.676,224.519c0.124-1.874-1.792-2.944-2.877-4.199c-2.275-2.631-4.196-5.705-6.298-8.486
	c-4.169-5.515-8.362-11.396-13.308-16.239c-3.691-3.615-10.739,1.278-7.437,5.738c4.156,5.612,9.265,10.625,14.198,15.553
	c3.35,3.346,8.116,9.887,13.471,9.638c0.745-0.034,1.625-0.393,1.959-1.123C46.521,225.102,46.654,224.854,46.676,224.519
	L46.676,224.519z"/>
<path fill="#EE772A" d="M35.882,236.38c-3.458-2.42-8.477-2.991-12.428-4.427c-4.496-1.635-8.762-3.749-12.883-6.169
	c-5.135-3.015-9.782,5.518-4.564,7.809c4.829,2.119,9.748,3.929,14.875,5.184c4.306,1.054,10.196,2.73,14.524,1.248
	C37.092,239.446,37.304,237.376,35.882,236.38L35.882,236.38z"/>
</svg>
