<?xml version="1.0" encoding="utf-8"?>
<!-- Generator: Adobe Illustrator 16.0.0, SVG Export Plug-In . SVG Version: 6.00 Build 0)  -->
<!DOCTYPE svg PUBLIC "-//W3C//DTD SVG 1.1//EN" "http://www.w3.org/Graphics/SVG/1.1/DTD/svg11.dtd">
<svg version="1.1" id="Layer_1" xmlns="http://www.w3.org/2000/svg" xmlns:xlink="http://www.w3.org/1999/xlink" x="0px" y="0px"
	  viewBox="0 0 500 500" enable-background="new 0 0 500 500" xml:space="preserve">
<g>
	<path fill="#684D99" d="M259.826,335.43c-42.081,3.455-74.182-15.464-114.557-20.587c-40.963-5.199-89.919,13.063-116.184,45.382
		c-25.329,31.169-4.496,72.402,25.519,92.366c19.734,13.127,44.785,16.176,68.125,15.956c27.767-0.259,52.94-3.043,78.745-12.03
		c26.962-9.39,60.233-6.24,88.37-6.24L259.826,335.43z"/>
	<g>
		<path fill="#684D99" d="M391.552,268.68c1.858-10.259,13.808-20.529,22.404-25.094c8.554-4.542,22.938-12.509,32.363-13.459
			c3.519,9.824,7.122,20.595,9.211,31.23c1.31,6.661,3.845,13.993,4.286,20.749c0.569,8.714-3.517,14.98-5.95,22.898L391.552,268.68
			z"/>
		<path fill="#684D99" d="M293.629,267.101c-6.631-2.216-10.849-9.729-16.86-13.466c-11.448-7.114-27.492-16.287-40.833-17.955
			c-12.304-1.538-13.419,16.286-15.209,26.666c-2.761,15.997-8.276,36.329-0.538,51.344L293.629,267.101z"/>
		<path fill="#866EAE" d="M473.966,384.563c6.211,3.554,13.499,1.528,19.663,6.29c-6.331,13.432-17.949,26.083-29.478,35.961
			c-1.512,1.303-3.025,2.547-4.517,3.743c-52.399,41.883-122.235,31.757-183.682,22.707c-24.125-3.565-44.954-9.665-63.16-22.813
			c-7.355-5.307-14.276-11.75-20.808-19.639c-3.772-4.536-9.981-11.122-7.222-16.381c1.836-3.482,10.46-7.332,13.854-8.269
			c-3.962-2.653-8.49-4.265-12.441-7.924c3.427-6.443,10.448-14.415,15.945-19.579c-6.654,1.279-14.076,0.935-20.44,2.285
			c8.913-36.979,34.974-68.202,65.229-87.604c14.866-9.548,32.693-18.039,50.174-19.852c7.156-0.747,14.444-1.587,21.766-2.239
			c11.783-1.065,23.69-1.682,35.386-0.711c5.941,0.474,11.829,1.375,17.626,2.82c26.294,6.574,51.487,20.727,71.661,39.821
			c11.382,10.768,20.374,23.276,30.355,35.334c6.999,8.457,17.348,15.86,22.177,26.059c-6.687,3.329-13.798,6.526-20.43,9.63
			c6.188,2.203,18.961-1.789,21.921,6.159C490.09,373.359,479.107,377.541,473.966,384.563z"/>
		<path fill="#A692C5" d="M464.151,426.814c-1.512,1.303-3.025,2.547-4.517,3.743c-52.399,41.883-122.235,31.757-183.682,22.707
			c-24.125-3.565-44.954-9.665-63.16-22.813c8.079-7.853,27.24-16.867,32.025-19.981c32.859-21.403,60.9-42.073,72.528-83.531
			c5.753-20.527,6.989-40.427,4.452-61.604c-0.567-4.668-1.77-9.394-2.949-14.085c11.783-1.065,23.69-1.682,35.386-0.711
			c-0.901,7.202-1.146,14.464-1.291,20.351c-0.389,14.877,1.291,28.486,6.109,42.499c7.812,22.694,21.555,44.239,37.099,61.771
			c13.654,15.397,29.777,30.062,47.303,40.048C449.831,418.844,457.854,422.137,464.151,426.814z"/>
		<path fill="#1D1D1B" d="M346.572,331.849c-2.066-3.633-5.561-4.206-9.148-3.615c-2.717,0.447-5.089,2.876-6.279,5.386
			c-1.379,2.904-1.187,6.313,1.055,8.7c1.989,2.118,5.743,2.986,8.172,1.121c0.923-0.706,2.034-1.476,3.073-1.968
			c-0.543,0.245-1.085,0.488-1.629,0.731c0.215-0.083,0.432-0.149,0.646-0.239c1.355-0.564,2.006-1.046,3.128-2.004
			C347.738,338.124,347.914,334.207,346.572,331.849L346.572,331.849z"/>
		<path fill="#1D1D1B" d="M323.105,367.945c4.697,4.782,11.703-1.209,14.354-5.536c3.58-5.842,4.899-15.454,2.902-22.104
			c-0.788-2.623-4.994-2.307-4.714,0.679c0.511,5.413,0.738,10.26-0.827,15.547c-0.788,2.66-2.261,5.229-4.39,6.895
			c-2.166,1.69-4.838,1.217-7.083,2.515C322.675,366.327,322.557,367.387,323.105,367.945L323.105,367.945z"/>
		<path fill="#1D1D1B" d="M352.14,367.046c-3.258-2.991-6.451-4.94-8.116-9.42c-1.774-4.772-1.724-9.873-2.362-14.867
			c-0.479-3.752-5.577-2.461-5.831,0.839c-0.603,7.863,4.525,31.513,16.098,25.191C352.5,368.479,352.635,367.501,352.14,367.046
			L352.14,367.046z"/>
		<path fill="#1D1D1B" d="M424.42,329.139c0.014,0.386-0.271,1.361-0.215,2.03c0.058,0.675,0.043,1.355,0.027,2.03
			c-0.046,1.961,0.624,3.771,1.774,5.248c1.165,1.494,3.929,1.516,5.09,0c1.438-1.878,1.885-4.076,1.506-6.454
			c-0.106-0.666-0.234-1.321-0.391-1.978c-0.275-1.152-0.942-1.8-1.474-2.698C429.017,324.401,424.278,325.409,424.42,329.139
			L424.42,329.139z"/>
		<path fill="#1D1D1B" d="M256.837,317.898c-0.048,0.136-0.094,0.27-0.141,0.402c0.308-0.56,0.614-1.123,0.923-1.685
			c-2.961,2.82-2.699,8.706-0.803,12.028c1.068,1.869,3.163,2.824,5.168,2.238c2.141-0.627,3.109-2.508,3.358-4.697
			c-0.101,0.744-0.055,0.372,0.139-1.113c-0.081-0.646-0.162-1.291-0.248-1.934c-0.086-0.664-0.208-1.323-0.367-1.97
			c-0.417-1.702-0.885-3.338-2.174-4.553c0.31,0.562,0.615,1.125,0.923,1.685c-0.046-0.133-0.093-0.267-0.14-0.402
			C262.264,314.422,258.048,314.416,256.837,317.898L256.837,317.898z"/>
		<path fill="#1D1D1B" d="M454.516,370.607c5.119,0.07,9.971,1.307,14.79,3.08c3.722,1.371,7.331,4.744,11.274,2.786
			c0.486-0.243,0.871-0.968,0.827-1.535c-0.372-4.701-4.961-6.166-8.605-7.681c-5.872-2.44-12.063-3.029-18.286-2.202
			C451.273,365.487,451.059,370.56,454.516,370.607L454.516,370.607z"/>
		<path fill="#1D1D1B" d="M457.463,382.621c4.033,1.295,8.147,2.245,12.229,3.347c3.874,1.047,8.072,3.938,12.057,2.85
			c1.324-0.361,1.719-1.9,1.186-3.099c-1.743-3.918-6.43-4.611-10.058-5.615c-4.599-1.269-9.299-2.051-13.888-3.371
			C455.405,375.701,453.93,381.488,457.463,382.621L457.463,382.621z"/>
		<path fill="#1D1D1B" d="M229.741,353.278c-8.514-0.011-20.611,0.098-27.601,5.816c-1.203,0.983-1.149,2.9,0.423,3.451
			c4.114,1.438,7.535,0.784,11.705-0.104c5.131-1.09,10.238-1.953,15.473-2.166C233.961,360.102,233.994,353.283,229.741,353.278
			L229.741,353.278z"/>
		<path fill="#1D1D1B" d="M226.032,370.571c-8,0.621-18.239-0.119-24.95,5.32c-1.91,1.548-1.286,4.53,1.211,4.76
			c8.087,0.74,16.62-3.756,24.238-6.155C228.504,373.876,228.206,370.401,226.032,370.571L226.032,370.571z"/>
	</g>
	<path fill="#684D99" d="M329.924,453.729c-19.641-3.737-91.146-18.98-101.515,7.07c-3.865,9.72,5.752,17.634,13.928,21.02
		c21.142,8.754,52.193,6.291,75.225,4.903c9.615-0.579,50.452-7.938,40.386-24.417C353.703,455.359,336.949,455.066,329.924,453.729
		z"/>
	<path fill="#866EAE" d="M360.652,494.122c-11.205,0.931-46.706,6.898-53.609-6.19c-6.317-11.979,16.071-16.518,23.84-18.995
		c19.962-6.366,37.121-19.999,58.202-24.142c18.651-3.666,47.454,3.921,36.069,28.637
		C415.916,493.492,379.563,492.55,360.652,494.122z"/>
	<path fill="#1D1D1B" d="M24.005,371.587c-16.767,6.18-17.519,38.048-16.579,51.669c1.319,19.113,12.927,38.23,30.25,48.85
		c26.764,16.406,61.31,18.072,92.274,19.368c27.591,1.155,58.185,2.238,83.731-5.12c17.976-5.177,57.087-30.047,22.302-43.782
		c-18.337-7.24-44.713,10.682-63.274,12.972c-23.125,2.852-47.244,4.464-70.1-0.707c-40.407-9.143-82.559-30.863-78.605-72.207
		V371.587z"/>
</g>
</svg>
