<?xml version="1.0" encoding="utf-8"?>
<!-- Generator: Adobe Illustrator 16.0.0, SVG Export Plug-In . SVG Version: 6.00 Build 0)  -->
<!DOCTYPE svg PUBLIC "-//W3C//DTD SVG 1.1//EN" "http://www.w3.org/Graphics/SVG/1.1/DTD/svg11.dtd">
<svg version="1.1" id="Layer_1" xmlns="http://www.w3.org/2000/svg" xmlns:xlink="http://www.w3.org/1999/xlink" x="0px" y="0px"
	 width="500px" height="500px" viewBox="0 0 500 500" enable-background="new 0 0 500 500" xml:space="preserve">
<g>
	<path fill="#3F3F3F" d="M208.328,269.981c-16.557,14.837-40.111,15.239-61.563,14.071c-11.612-0.632-41.429-10.08-40.057,6.639
		c2.191,26.714,65.66,32.427,82.271,26.781L208.328,269.981z"/>
	<path fill="#5A5A5A" d="M389.104,377.276c-2.404,21.555-12.25,46.867-28.135,62.063c-11.469,10.97-51.389,25.312-57.793,1.257
		c-5.488-20.619,26.732-19.563,37.092-26.93c16.186-11.509,22.738-37.244,22.885-55.739c0.238-30.097-3.715-58.012,6.563-86.577
		c8.762-24.353,37.316-49.652,65.512-41.425c13.178,3.845,21.945,18.93,10.99,29.94c-8.947,8.99-23.262,5.699-33.902,15.348
		C388.483,296.821,392.431,347.456,389.104,377.276z"/>
	<path fill="#5A5A5A" d="M208.745,486.322c38.754,9.91,101.486,9.479,124.672-24.62c31.633-46.523,0.434-125.396-17.908-173.407
		c-12.643-33.096-43.103-74.845-84.11-54.608c-26.043,12.852-33.963,59.274-44.767,83.799
		C163.564,369.853,128.06,465.688,208.745,486.322z"/>
	<path fill="#3F3F3F" d="M194.25,379.035c-4.562-40.443-34.329-34.501-45.048-0.899c-5.17,16.245-9.175,38.363-5.996,55.425
		c4.157,22.255,27.755,43.223,47.583,52.326c9,4.134,28.962,14.613,36.536,2.15c6.763-11.128-10.41-22.57-16.806-30.249
		C188.418,431.255,197.829,410.77,194.25,379.035z"/>
	<path fill="#3F3F3F" d="M311.603,379.035c4.561-40.443,34.328-34.501,45.047-0.899c5.17,16.245,9.176,38.363,5.996,55.425
		c-4.156,22.255-27.754,43.223-47.582,52.326c-9,4.134-28.963,14.613-36.535,2.15c-6.764-11.128,10.41-22.57,16.805-30.249
		C317.435,431.255,308.022,410.77,311.603,379.035z"/>
	<path fill="#3F3F3F" d="M310.985,306.025c9.34-9.803,23.129-35.102,7.037-46.022c-15.516-10.531-25.82,10.714-34.166,19.701
		c-12.035,12.963-29.926,20.22-43.704,31.163c-24.083,19.13-7.648,33.339,18.997,27.745
		C276.745,334.919,298.554,319.074,310.985,306.025z"/>
	<g>
		<path fill="#3F3F3F" d="M203.827,41.369c-7.75-10.573-27.143-11.272-39.173-12.307c-11.882-1.022-25.225-6.667-36.816-2.75
			c-2.572,29.294-2.176,65.232,13.5,91.126L203.827,41.369z"/>
		<path fill="#3F3F3F" d="M276.937,46.18c5.256-12.189,23.977-17.622,35.459-21.579c11.34-3.907,23.104-12.67,35.23-11.701
			c8.842,27.876,16.23,62.947,6.578,91.986L276.937,46.18z"/>
		<path fill="#5A5A5A" d="M384.015,237.468c-7.432-2.454-17.061-1.862-25.117-2.439c4.205,8.518,16.086,13.7,16.031,24.615
			c-13.115-5.226-31.328-4.778-45.963-5.472c-2.17-0.102-4.354-0.115-6.537-0.028c-17.225,0.548-34.434,6.048-51.279,9.325
			c-8.732,1.703-17.671,2.888-26.608,3.71c-0.936,0.087-1.872,0.174-2.807,0.245c-4.096,0.361-8.192,0.636-12.26,0.866
			c-14.918,0.823-29.05-1.14-43.345-2.482c-10.66-0.996-21.401-1.631-32.604-0.52c-10.74,1.082-23.19,6.381-33.322,6.279
			c3.607-9.614,12.83-15.778,19.692-22.679c-8.327-3.552-21.17-0.015-28.67,3.364c-1.627-9.557,10.904-16.4,16.952-20.89
			c-8.584-1.068-16.383,5.818-24.195,5.442c-0.637-11.289,17.184-25.639,20.628-37.03c3.473-11.477,7.88-23.733,7.297-35.976
			c-0.773-16.501-5.086-30.894-2.523-47.756c0.963-6.367,1.871-12.531,3.228-18.45c1.966-8.634,4.829-16.79,10.09-24.457
			c13.101-19.113,31.41-30.836,51.821-38.761c7.229-2.816,14.729-5.155,22.35-7.176c0.298-0.072,0.597-0.159,0.896-0.23
			c11.758-3.003,23.72-3.697,35.6-2.758c9.155,0.723,18.268,2.411,27.232,4.764c4.15,1.082,8.219,2.064,12.207,3.089
			c12.91,3.335,24.818,7.218,35.004,17.381c14.551,14.523,22.553,33.031,27.246,52.708c3.635,15.303,5.275,31.299,6.455,46.644
			c1.018,13.195,0.271,28.989,5.439,40.884c4.313,9.947,16.248,15.086,20.654,24.716c-6.984-3.869-14.227,0.057-21.496,0.36
			C374.372,219.856,381.343,227.71,384.015,237.468z"/>
		<path fill="#7C7C7C" d="M255.798,6.065l-1.586,0.073C254.767,6.008,255.282,6.065,255.798,6.065z"/>
		<path fill="#989899" d="M330.796,224.868c-3.592,54.785-96.566,53.862-131.16,42.723c-30.02-9.666-49.016-36.247-33.28-69.88
			c8.477-18.118,28.141-27.732,44.131-37.636c8.001-4.951,7.04-12.748,8.151-23.026c2.59-23.819-0.909-48.015-0.881-71.951
			c0.014-12.704,0.122-25.422,0.014-38.126c11.758-3.003,23.72-3.697,35.6-2.758c-0.624,24.757,0.217,49.515,2.984,74.144
			c1.563,13.915-1.854,28.125,0.88,42.004c3.938,19.993,29.999,23.9,44.331,33.368C319.935,185.862,332.405,200.442,330.796,224.868
			z"/>
		<path fill="#1D1D1B" d="M233.465,182.479c0.083,0.102,0.165,0.202,0.247,0.304c-0.433-0.79-0.865-1.58-1.297-2.37
			c0.733,2.445,2.82,4.417,5.106,5.19c1.619,0.548,3.252,0.665,4.927,0.901c2.016,0.285,4.899-1.494,5.698-3.479
			c0.516-1.281,0.738-2.16,0.902-3.546c0.367-3.131-2.301-5.917-4.846-6.775c-4.391-1.48-10.166-0.395-11.787,4.855
			c0.432-0.79,0.864-1.58,1.297-2.37c-0.083,0.101-0.164,0.203-0.247,0.303C231.718,177.646,231.721,180.326,233.465,182.479
			L233.465,182.479z"/>
		<path fill="#1D1D1B" d="M222.266,204.28c2.93,8.013,13.379,4.653,17.366-0.456c4.348-5.571,6.578-17.327,2.031-23.332
			c-1.93-2.55-5.027-0.13-5.317,2.344c-0.305,2.6,0.664,5.379,0.656,8.052c-0.006,2.506-0.595,5.009-1.675,7.228
			c-2.776,5.704-7.849,2.973-12.395,4.914C222.49,203.219,222.062,203.722,222.266,204.28L222.266,204.28z"/>
		<path fill="#1D1D1B" d="M260.795,200.548c-1.881-1.921-3.603-0.995-5.89-0.693c-2.297,0.303-3.941-1.142-5.143-3.059
			c-1.34-2.137-2.228-4.493-2.888-6.949c-0.83-3.087-0.706-6.192-2.249-9.034c-1.342-2.471-5.458-2.897-6.686,0
			c-3.199,7.551,1.679,19.344,7.789,23.929c3.09,2.319,6.4,3.021,10.1,2.376C257.75,206.783,263.604,203.417,260.795,200.548
			L260.795,200.548z"/>
		<path fill="#1D1D1B" d="M308.132,129.214c-0.035,0.428-0.066,0.854-0.088,1.283c0.145-1.072,0.152-1.303,0.027-0.691
			c-0.17,0.75-0.316,1.525-0.23,2.295c0.328,3.017,1.291,5.589,3.922,7.177c1.783,1.076,3.986,1.11,5.768,0
			c1.605-1.001,3.023-3.179,2.83-5.252c-0.074-0.796-0.047-1.539-0.256-2.351c-0.205-0.642-0.459-1.258-0.766-1.849
			c0.371,1.01,0.459,1.204,0.26,0.581c-0.25-0.823-0.596-1.593-0.98-2.35c0.459,2.244,0.627,2.843,0.506,1.798
			c-0.021-0.213-0.039-0.428-0.057-0.641c-0.27-3.158-2.283-5.82-5.467-5.82C310.421,123.394,308.396,126.055,308.132,129.214
			L308.132,129.214z"/>
		<path fill="#1D1D1B" d="M171.756,134.359c0.294,1.364-0.012-1.047,0.043,0.431c0.025,0.676-0.055,1.355-0.094,2.029
			c-0.125,2.114,0.346,4.084,1.132,6.002c1.394,3.404,7.091,3.441,8.473,0c0.961-2.396,1.367-4.909,0.76-7.496
			c-0.386-1.646-1.014-3.339-1.948-4.721c-1.215-1.797-3.046-2.861-5.169-2.239C172.472,129.092,171.198,131.772,171.756,134.359
			L171.756,134.359z"/>
	</g>
</g>
</svg>
