<?xml version="1.0" encoding="utf-8"?>
<!-- Generator: Adobe Illustrator 16.0.0, SVG Export Plug-In . SVG Version: 6.00 Build 0)  -->
<!DOCTYPE svg PUBLIC "-//W3C//DTD SVG 1.1//EN" "http://www.w3.org/Graphics/SVG/1.1/DTD/svg11.dtd">
<svg version="1.1" id="Layer_1" xmlns="http://www.w3.org/2000/svg" xmlns:xlink="http://www.w3.org/1999/xlink" x="0px" y="0px"
	 width="500px" height="500px" viewBox="0 0 500 500" enable-background="new 0 0 500 500" xml:space="preserve">
<path id="XMLID_60_" fill="#E5302D" d="M465.537,60.564c-2.938,4.164-6.525,8.002-10.572,10.681
	c-5.805,3.843-13.842-0.319-18.945-3.915c-11.844-8.34-20.65-21.075-23.5-35.161c-0.727-3.595-1.129-7.408,0.098-10.864
	c1.678-4.73,6.273-7.526,11.047-8.304c11.359-1.852,17.924,6.684,22.896,15.369c-0.324-0.564,2.873-5.497,3.275-6.221
	c1.207-2.171,2.508-4.326,4.154-6.198c4.836-5.501,12.125-7.671,18.486-3.374c5.326,3.597,6.23,10.889,5.646,16.786
	c-0.85,8.606-4.504,16.504-8.35,24.134C468.584,55.859,467.16,58.262,465.537,60.564z"/>
<path id="XMLID_1_" fill="#E5302D" d="M403.807,125.792c-1.85,2.623-4.111,5.04-6.66,6.728c-3.656,2.42-8.719-0.201-11.934-2.466
	c-7.461-5.254-13.008-13.275-14.803-22.148c-0.457-2.264-0.711-4.666,0.063-6.843c1.057-2.979,3.951-4.741,6.957-5.231
	c7.156-1.166,11.291,4.21,14.424,9.681c-0.205-0.355,1.809-3.462,2.063-3.918c0.762-1.368,1.58-2.725,2.617-3.904
	c3.047-3.465,7.637-4.832,11.645-2.125c3.355,2.266,3.924,6.859,3.557,10.574c-0.535,5.421-2.836,10.396-5.26,15.202
	C405.727,122.828,404.828,124.341,403.807,125.792z"/>
<g id="XMLID_266_">
	<path id="XMLID_114_" fill="#DF918D" d="M188.646,459.88c-9.229-2.021-21.852-0.599-28.935-0.095
		c-13.762,0.981-27.455,3.538-41.29,3.282c-12.79-0.236-36.726,1.245-43.394-12.889c-5.25-11.132-2.674-24.736,4.185-34.559
		c4.542-6.507,10.893-11.974,18.475-14.313c2.322-0.718,4.803-1.167,6.775-2.589c2.684-1.936,4.099-6.434,2.614-9.521
		c-2.252-4.683-5.465-3.021-9.817-1.751c-8.956,2.609-17.343,7.041-24.679,12.789c-14.665,11.489-25.29,28.416-27.963,46.968
		c-2.707,18.787,5.35,31.841,22.763,39.706c10.712,4.839,22.582,6.437,34.296,7.41c30.153,2.508,60.729,1.219,90.274-5.308
		c11.925-2.634,13.644-17.932,4.731-25.576C194.668,461.708,191.864,460.585,188.646,459.88z"/>
	<path id="XMLID_111_" fill="#E3B39C" d="M288.656,415.815c2.443-3.775,2.805-8.19-1.039-12.962
		c-2.867-3.562-7.701-5.37-12.23-4.741c-0.023-10.051-2.666-18.827-3.332-28.662c-1.781-26.277-6.273-54.728-4.906-81.425
		c1.375-26.813-1.688-53.88,4.109-80.519c0.096-0.446-20.09-4.523-21.857-4.85c-14.967-2.771-29.934-5.543-44.899-8.314
		c4.735,6.118,2.36,16.623,0.143,23.072c-9.022,26.233-32.797,45.112-53.355,61.962c-22.138,18.146-41.348,40.572-52.789,67.013
		c-5.744,13.272-9.421,27.407-10.707,41.817c-1.192,13.373-3.248,31.066,4.596,42.572c1.943,2.849,4.379,5.463,7.474,6.984
		c2.948,1.448,6.292,1.817,9.557,2.165c13.472,1.435,25.865,3.673,39.602,3.12c20.139-0.809,40.797-1.418,60.79-4.065
		c3.512-0.464,39.065-7.947,34.06-14.675c6.161,8.279,18.224,5.853,26.619,3.311C276.375,425.837,284.932,421.567,288.656,415.815z"
		/>
	<path id="XMLID_260_" fill="#CB8381" d="M183.975,306.665c32.421,8.133,55.377,42.256,51.42,75.357
		c-1.181,9.875-11.394,18.721-18.573,24.651c-7.138,5.896-12.897,10.473-22.087,13.13c8.799-1.019,17.953-1.484,26.845-1.363
		c12.258,0.169,16.36,2.586,18.486,11.56c3.406-1.841,5.216-3.798,3.806-5.692c0.323,0.435,0.672,0.824,1.026,1.201
		c-1.158-4.049-3.768-7.418-7.549-9.413c-5.748-3.033-20.622-2.995-26.414,0.128c19.42-10.471,30.198-19.115,30.581-42.126
		C242.148,336.229,217.935,315.185,183.975,306.665z"/>
	<path id="XMLID_113_" fill="#E3B39C" d="M258.35,284.88c0.436,10.402,0.869,20.806,1.305,31.207
		c0.387,9.271,8.701,91.582,11.145,91.36c6.016-0.546,12.168,0.502,17.664,3.008c2.77,1.263,5.596,3.178,6.346,6.128
		c0.793,3.115-1.1,6.416-3.732,8.258c-2.635,1.844-5.877,2.545-9.023,3.207c-9.363,1.969-22.979,5.362-32.15,0.936
		c-10.559-5.096-12.689-23.961-15.343-34.117c-3.792-14.513-4.522-29.592-6.352-44.42c-2.61-21.163-4.121-42.443-5.265-63.73
		L258.35,284.88z"/>
	<path id="XMLID_267_" fill="#CB8381" d="M287.6,413.507c-1.982-1.422-4.896-2.002-6.857-2.341
		c-4.141-0.716-10.207,1.964-13.295-1.594c-2.695-3.104-1.5-7.885-2.229-11.608c-2.344-11.971-2.943-23.776-5.213-35.711
		c-1.117-5.879-0.766-11.818-1.65-17.641c-1.865-12.279-3.027-24.097-2.883-36.488c0.057-4.927-0.197-9.846-0.412-14.771
		c-0.105-2.32-2.107-11.682-0.086-13.271c0.773-0.609,2.002-0.113,2.502,0.735c2.084,3.538,1.07,8.84,1.391,12.726
		c0.617,7.498,0.473,15.033,0.787,22.545c0.387,9.27,8.701,91.582,11.145,91.36c6.016-0.546,12.168,0.502,17.664,3.008
		c2.77,1.263,5.596,3.177,6.346,6.128c0.793,3.115-1.1,6.416-3.732,8.258c-2.635,1.844-5.877,2.545-9.023,3.206
		c-9.363,1.97-22.979,5.363-32.15,0.937c-10.559-5.096-12.689-23.961-15.343-34.117c-3.792-14.513-4.522-29.592-6.352-44.42
		c-1.44-11.684-2.547-23.406-3.441-35.145c-0.523-6.875-1.768-13.667-2.53-20.517c-0.304-2.729-1.615-7.671-0.697-10.289
		c0.944-2.69,2.534-3.274,3.461,0.488c1.76,7.136,1.217,14.442,1.955,21.681c2.981,29.243,6.228,58.28,11.915,87.162
		c1.498,7.604,3.026,16.994,7.431,23.507c2.259,3.341,5.539,6.104,9.425,7.181c2.879,0.796,5.924,0.646,8.906,0.488
		c6.654-0.351,13.375-0.711,19.785-2.535c2.551-0.725,6.086-3.121,5.176-6.304C289.275,415.046,288.543,414.181,287.6,413.507z"/>
	<path id="XMLID_263_" fill="#502429" d="M170.192,492.858c-0.399-3.58-2.245-6.34-4.454-8.836
		c-4.688-5.299-10.928-9.455-8.018-17.992c0.785-2.3,1.235-4.344,1.451-6.199c-13.581,1.008-27.096,3.488-40.75,3.236
		c-5.34-0.098-12.621,0.089-19.779-0.672c-1.352,2.236-2.194,4.787-2.901,7.322c-1.899,6.814-3.149,14.035-1.63,20.945
		c0.237,1.081,0.534,2.063,0.861,3c2.234,0.25,4.472,0.471,6.705,0.656C124.483,496.216,147.53,495.93,170.192,492.858z"/>
	<path id="XMLID_261_" fill="#633237" d="M157.042,319.999c-0.079-5.432-2.634-10.479-5.13-15.303
		c-3.013-5.82-6.301-11.887-11.093-16.178c-17.662,16.367-32.726,35.703-42.319,57.87c-3.05,7.048-5.498,14.343-7.333,21.79
		c0.784,0.333,1.604,0.615,2.481,0.811c4.921,1.098,10.384-0.765,13.61-4.641c3.615-4.343,4.365-10.623,8.279-14.699
		c4.577-4.766,11.907-5.099,18.371-6.47C145.491,340.724,157.213,331.839,157.042,319.999z"/>
	<path id="XMLID_262_" fill="#633237" d="M264.012,216.492c1.697-3.302,2.213-7.178,1.611-10.831l-61.122-11.319
		c4.735,6.118,2.36,16.623,0.143,23.072c-2.462,7.157-6.049,13.751-10.342,19.922c3.646,9.121,8.683,18.409,20.434,16.953
		c7.322-0.907,13.058-7.392,14.977-14.516c0.798-2.966,1.138-6.237,3.144-8.565c3.395-3.937,9.507-3.216,14.669-3.82
		C254.338,226.591,260.877,222.592,264.012,216.492z"/>
	<g id="XMLID_259_">
		<g id="XMLID_246_">
			<path id="XMLID_103_" fill="#DF918D" d="M190.834,139.545c3.417-4.201,8.567-5.837,11.628-11.211
				c4.781-8.395,8.066-18.03,8.548-27.728c0.176-3.537-1.882-8.152-1.439-11.164c0.513-3.482,4.981-5.978,4.152-9.759
				c-0.317-1.44-1.476-2.523-2.592-3.487c-11.146-9.625-23.871-17.441-37.599-22.796c-7.771-3.031-19.857-8.988-27.684-3.33
				c-7.063,5.106-7.783,13.566-9.655,21.145c-3.073,12.444-4.267,25.938-4.288,38.75c-0.022,13.535,0.797,27.744,3.921,40.992
				c2.823,11.97,9.043,20.726,15.216,30.959c1.891-12.159,13.659-14.531,22.316-21.071
				C181.829,154.448,184.361,147.504,190.834,139.545z"/>
			<path id="XMLID_104_" fill="#DF918D" d="M216.364,26.996c-0.135-5.707-0.874-13.028,2.327-18.097
				c4.479-7.09,14.21-3.781,20.91-2.654c16.948,2.85,32.702,9.875,46.891,19.46c0.387,0.262,0.773,0.524,1.16,0.786
				c19.352,13.145,37.502,30.058,47.758,51.418c0.586,1.225,1.146,2.462,1.678,3.713c-14.133-6.77-33.193-6.434-48.789-7.78
				c-10.234-0.884-20.59-0.708-30.756,0.834c-5.07,0.769-10.09,1.874-15,3.358c-3.656,1.105-6.461,2.97-9.887,0.396
				c-2.39-1.796-4.614-5.616-6.188-8.147c-5.864-9.435-8.53-20.375-9.321-31.367C216.92,35.763,216.469,31.455,216.364,26.996z"/>
			<path id="XMLID_102_" fill="#E3B39C" d="M296.363,222.313c6.842-3.453,13.295-7.906,19.389-12.518
				c27.943-21.148,49.998-54.322,43.658-90.755c-5.857-33.668-32.23-66.303-67.385-71.13
				c-45.765-6.285-98.865,13.254-131.068,46.333c-7.67,7.88-14.121,17.041-18.432,27.184c-8.647,20.347-7.367,42.97,3.35,62.296
				c12.328,22.232,30.872,42.255,54.883,51.743C232.802,248.126,267.477,238.53,296.363,222.313z"/>
			<path fill="#221E20" d="M185.199,150.235c-4.25,0-9.181-1.429-14.884-4.295c-0.736-0.369-1.029-1.264-0.66-1.998
				c0.366-0.739,1.265-1.032,1.997-0.662c8.669,4.356,15.184,5.119,19.904,2.343c3.872-2.28,6.306-7.311,6.059-12.518
				c-0.218-4.539-2.175-9.221-5.82-13.916c-0.503-0.65-0.384-1.584,0.265-2.089c0.64-0.504,1.584-0.39,2.091,0.264
				c4.023,5.187,6.188,10.436,6.436,15.599c0.306,6.38-2.646,12.355-7.518,15.225C190.751,149.552,188.138,150.235,185.199,150.235z
				"/>
			<path fill="#221E20" d="M276.184,98.366c-5.959,0-12.113-1.93-17.234-5.625c-0.664-0.481-0.816-1.411-0.332-2.077
				c0.479-0.67,1.412-0.817,2.078-0.335c7.229,5.216,16.717,6.539,24.172,3.353c7.885-3.365,13.064-12.177,11.787-20.062
				c-0.133-0.811,0.42-1.575,1.23-1.708c0.799-0.124,1.576,0.417,1.705,1.231c1.512,9.327-4.316,19.333-13.555,23.276
				C282.971,97.727,279.611,98.366,276.184,98.366z"/>
			<path id="XMLID_233_" fill="#633237" d="M235.425,86.232c1.374-9.325-6.01-21.518-14.993-29.54
				c-7.42,2.705-14.639,5.941-21.575,9.617c1.363,6.227,4.648,12.846,8.791,18.34C214.452,93.671,232.706,104.686,235.425,86.232z"
				/>
			<path id="XMLID_110_" fill="#E5302D" d="M262.797,179.977c6.207,6.131,16.273,7.286,24,2.989
				c10.539-5.86,7.193-18.939,1.816-27.096c-6.621-10.042-15.16-13.823-27.268-11.788c-2.301,0.387-4.744,0.88-6.42,2.505
				C244.458,156.736,255.223,172.496,262.797,179.977z"/>
			<path id="XMLID_109_" fill="#F8ECB9" d="M260.363,146.048c7.053,6.645,18.449,10.348,27.793,8.137
				c9.699-2.295,10.77-15.526,3.24-21.051c-9.385-6.888-21.695-6.311-32.15-3.922c-1.666,0.381-3.33,0.811-4.91,1.462
				c-11.532,4.759-29.362,32.424-18.327,44.187c3.875,4.131,11.698,4.281,16.504,2.143c12.736-5.667,12.699-23.123,5.85-33.062
				C258.98,144.672,259.65,145.375,260.363,146.048z"/>
			<path id="XMLID_108_" fill="#1D1D1D" d="M236.593,137.882c-0.994,2.751-0.652,6.089,1.332,8.24
				c2.24,2.429,5.886,2.852,9.189,2.842c3.087-0.009,6.221-0.271,9.112-1.352c4.742-1.775,8.576-5.821,10.092-10.652
				C273.91,112.777,241.81,123.451,236.593,137.882z"/>
			<path id="XMLID_107_" fill="#BBA381" d="M246.658,155.033c-0.723-3.98-5.639,1.911-1.582,1.879
				C246.007,156.905,246.824,155.951,246.658,155.033z"/>
			<path id="XMLID_235_" fill="#BBA381" d="M240.208,163.219c-0.723-3.98-5.639,1.911-1.583,1.879
				C239.557,165.091,240.374,164.137,240.208,163.219z"/>
			<path id="XMLID_234_" fill="#BBA381" d="M248.89,168.367c-0.722-3.98-5.639,1.911-1.582,1.879
				C248.24,170.238,249.056,169.285,248.89,168.367z"/>
			<path id="XMLID_245_" fill="#BBA381" d="M285.551,137.386c3.854-1.238-2.633-5.339-2.07-1.322
				C283.611,136.987,284.664,137.671,285.551,137.386z"/>
			<path id="XMLID_243_" fill="#BBA381" d="M288.928,147.621c0.889-0.213,1.66-0.968,1.352-2.004
				c-0.559-1.882-3.676-1.181-3.4,0.758C287.039,147.506,288.041,147.834,288.928,147.621z"/>
			<path id="XMLID_236_" fill="#BBA381" d="M275.248,139.769c1.701-0.546,1.969-1.881,0.459-2.855
				C272.598,134.906,271.883,140.848,275.248,139.769z"/>
			<path id="XMLID_224_" fill="#DF8F8C" d="M178.309,182.736c-2.919,0.8-5.964,0.897-8.379-0.482
				c-3.962-2.262-6.291-7.451-3.958-11.66c2.674-4.822,11.594-10.106,17.354-8.738c9.806,2.33,9.22,12.777,1.733,17.768
				C183.218,180.852,180.81,182.051,178.309,182.736z"/>
			<path id="XMLID_247_" fill="#DF8F8C" d="M321.797,99.876c-2.912,0.829-5.955,0.958-8.385-0.397
				c-3.984-2.222-6.365-7.387-4.076-11.619c2.625-4.849,11.492-10.224,17.266-8.913c9.828,2.23,9.348,12.683,1.912,17.749
				C326.686,97.942,324.289,99.167,321.797,99.876z"/>
		</g>
		<path fill="#221E20" d="M275.291,138.328c-0.146,0-0.291-0.028-0.434-0.087c-0.566-0.238-0.834-0.892-0.596-1.46
			c4.803-11.435,11.617-24.312,19.697-37.242c0.33-0.523,1.018-0.68,1.541-0.355c0.521,0.327,0.682,1.016,0.355,1.538
			c-8.023,12.83-14.777,25.598-19.535,36.922C276.141,138.071,275.727,138.328,275.291,138.328z"/>
		<path fill="#221E20" d="M285.779,136.316c-0.285,0-0.57-0.109-0.787-0.326c-0.438-0.436-0.439-1.143-0.004-1.579l1.334-1.339
			c4.365-4.386,8.879-8.921,13.699-12.917c1.182-0.982,2.357-1.968,3.529-2.952c4.807-4.038,9.779-8.214,15.199-11.826
			c0.518-0.34,1.207-0.204,1.551,0.31c0.34,0.513,0.199,1.206-0.311,1.548c-5.32,3.544-10.025,7.494-15.004,11.678
			c-1.174,0.987-2.352,1.975-3.541,2.961c-4.736,3.929-9.213,8.426-13.541,12.774l-1.334,1.339
			C286.352,136.207,286.064,136.316,285.779,136.316z"/>
		<path fill="#221E20" d="M289.07,146.747c-0.352,0-0.701-0.169-0.918-0.481c-0.35-0.507-0.225-1.202,0.283-1.554
			c8.838-6.115,18.445-11.064,28.557-14.708c0.582-0.212,1.219,0.093,1.428,0.673s-0.09,1.219-0.672,1.427
			c-9.928,3.579-19.361,8.439-28.045,14.445C289.512,146.683,289.291,146.747,289.07,146.747z"/>
		<path fill="#221E20" d="M203.585,185.724c-0.278,0-0.561-0.104-0.776-0.315c-0.444-0.429-0.453-1.136-0.025-1.579
			c5.477-5.644,10.671-10.057,15.884-13.49c2.768-1.824,5.95-3.481,9.724-5.065c3.55-1.489,7.76-2.634,9.404-3.057
			c0.6-0.151,1.206,0.208,1.36,0.804c0.154,0.598-0.206,1.206-0.802,1.359c-3.328,0.854-6.729,1.959-9.097,2.952
			c-3.647,1.531-6.709,3.125-9.363,4.871c-5.076,3.343-10.148,7.656-15.506,13.182C204.167,185.611,203.876,185.724,203.585,185.724
			z"/>
		<path fill="#221E20" d="M203.254,159.208c-0.463,0-0.893-0.288-1.053-0.747c-0.203-0.583,0.102-1.22,0.684-1.423
			c5.081-1.776,10.308-2.24,15.36-2.688c1.282-0.113,2.57-0.228,3.864-0.363c3.561-0.374,7.354-0.532,11.625-0.458
			c4.04,0.062,7.678,0.181,11.272,1.013c0.6,0.138,0.975,0.738,0.835,1.339c-0.14,0.597-0.713,0.982-1.34,0.836
			c-3.381-0.782-6.893-0.896-10.803-0.955c-4.181-0.074-7.89,0.081-11.358,0.446c-1.305,0.136-2.604,0.251-3.897,0.366
			c-5.146,0.457-10.004,0.887-14.82,2.571C203.501,159.188,203.376,159.208,203.254,159.208z"/>
		<path fill="#221E20" d="M239.156,196.275c-0.087,0-0.174-0.01-0.262-0.032c-0.598-0.144-0.968-0.747-0.822-1.346
			c0.416-1.726,0.753-3.443,1.09-5.158c0.526-2.673,1.07-5.438,1.913-8.182c1.3-4.24,2.938-8.586,5.012-13.284
			c0.25-0.564,0.916-0.817,1.471-0.571c0.564,0.249,0.82,0.908,0.569,1.472c-2.034,4.617-3.645,8.881-4.918,13.037
			c-0.808,2.634-1.34,5.342-1.854,7.96c-0.343,1.746-0.689,3.496-1.113,5.25C240.119,195.932,239.663,196.275,239.156,196.275z"/>
	</g>
	<path id="XMLID_115_" fill="#E3B39C" d="M321.414,92.858c0.018,0.091,0.031,0.185,0.039,0.28c0.027,0.298,0,0.621-0.188,0.855
		c-0.395,0.494-1.182,0.3-1.742,0.006c-1.191-0.627-6.92-4.314-4.285-6.014c0.723-0.466,1.695,0.006,2.301,0.62
		C318.779,89.867,321.041,90.949,321.414,92.858z"/>
	<path id="XMLID_117_" fill="#E3B39C" d="M325.578,91.083c-0.666,0.962-2.436-1.134-3.477-2.019
		c-1.943-1.651-3.326-2.747-3.393-5.357c0.434-0.406,1.135-0.4,1.674-0.147c0.539,0.254,0.951,0.708,1.35,1.15
		c1.164,1.291,4.225,3.43,4.1,5.395C325.803,90.577,325.713,90.891,325.578,91.083z"/>
	<path id="XMLID_264_" fill="#E3B39C" d="M176.441,177.531c-0.213-1.487-2.688-9.559-5.188-7.264
		c-1.507,1.383,2.237,6.188,3.151,7.418c0.249,0.336,0.525,0.68,0.913,0.838s0.914,0.053,1.087-0.328
		C176.498,177.99,176.472,177.753,176.441,177.531z"/>
	<path id="XMLID_265_" fill="#E3B39C" d="M180.3,168.87c-0.638-0.808-1.786-2.171-2.968-1.839c-2.991,0.842,1.979,5.625,2.964,6.194
		c0.273,0.158,0.602,0.304,0.896,0.187c0.359-0.144,0.467-0.599,0.472-0.987C181.679,171.131,181.102,169.886,180.3,168.87z"/>
</g>
</svg>
